%TF.GenerationSoftware,KiCad,Pcbnew,9.0.8*%
%TF.CreationDate,2026-03-19T17:21:50+08:00*%
%TF.ProjectId,stm32pcb,73746d33-3270-4636-922e-6b696361645f,rev?*%
%TF.SameCoordinates,Original*%
%TF.FileFunction,Paste,Top*%
%TF.FilePolarity,Positive*%
%FSLAX46Y46*%
G04 Gerber Fmt 4.6, Leading zero omitted, Abs format (unit mm)*
G04 Created by KiCad (PCBNEW 9.0.8) date 2026-03-19 17:21:50*
%MOMM*%
%LPD*%
G01*
G04 APERTURE LIST*
G04 Aperture macros list*
%AMRoundRect*
0 Rectangle with rounded corners*
0 $1 Rounding radius*
0 $2 $3 $4 $5 $6 $7 $8 $9 X,Y pos of 4 corners*
0 Add a 4 corners polygon primitive as box body*
4,1,4,$2,$3,$4,$5,$6,$7,$8,$9,$2,$3,0*
0 Add four circle primitives for the rounded corners*
1,1,$1+$1,$2,$3*
1,1,$1+$1,$4,$5*
1,1,$1+$1,$6,$7*
1,1,$1+$1,$8,$9*
0 Add four rect primitives between the rounded corners*
20,1,$1+$1,$2,$3,$4,$5,0*
20,1,$1+$1,$4,$5,$6,$7,0*
20,1,$1+$1,$6,$7,$8,$9,0*
20,1,$1+$1,$8,$9,$2,$3,0*%
%AMRotRect*
0 Rectangle, with rotation*
0 The origin of the aperture is its center*
0 $1 length*
0 $2 width*
0 $3 Rotation angle, in degrees counterclockwise*
0 Add horizontal line*
21,1,$1,$2,0,0,$3*%
G04 Aperture macros list end*
%ADD10R,1.700000X1.700000*%
%ADD11C,1.700000*%
%ADD12RoundRect,0.250000X-0.512652X-0.159099X-0.159099X-0.512652X0.512652X0.159099X0.159099X0.512652X0*%
%ADD13R,1.200000X2.000000*%
%ADD14R,1.150000X0.600000*%
%ADD15R,1.150000X0.300000*%
%ADD16R,1.860000X1.230000*%
%ADD17RoundRect,0.250000X-0.070711X-0.565685X0.565685X0.070711X0.070711X0.565685X-0.565685X-0.070711X0*%
%ADD18RoundRect,0.150000X-0.825000X-0.150000X0.825000X-0.150000X0.825000X0.150000X-0.825000X0.150000X0*%
%ADD19RotRect,1.000000X1.800000X225.000000*%
%ADD20RoundRect,0.243750X-0.456250X0.243750X-0.456250X-0.243750X0.456250X-0.243750X0.456250X0.243750X0*%
%ADD21RoundRect,0.075000X0.662500X0.075000X-0.662500X0.075000X-0.662500X-0.075000X0.662500X-0.075000X0*%
%ADD22RoundRect,0.075000X0.075000X0.662500X-0.075000X0.662500X-0.075000X-0.662500X0.075000X-0.662500X0*%
%ADD23R,2.000000X1.200000*%
%ADD24RoundRect,0.250000X0.159099X-0.512652X0.512652X-0.159099X-0.159099X0.512652X-0.512652X0.159099X0*%
G04 APERTURE END LIST*
D10*
%TO.C,J6*%
X176850000Y-71535000D03*
D11*
X176850000Y-74075000D03*
X176850000Y-76615000D03*
X176850000Y-79155000D03*
X176850000Y-81695000D03*
X176850000Y-84235000D03*
X176850000Y-86775000D03*
X176850000Y-89315000D03*
X176850000Y-91855000D03*
X176850000Y-94395000D03*
X176850000Y-99475000D03*
%TD*%
D12*
%TO.C,C6*%
X203228249Y-93628249D03*
X204571751Y-94971751D03*
%TD*%
D13*
%TO.C,SW3*%
X189630000Y-99140000D03*
X192130000Y-99140000D03*
X194630000Y-99140000D03*
X189630000Y-93340000D03*
X192130000Y-93340000D03*
X194630000Y-93340000D03*
%TD*%
D12*
%TO.C,C7*%
X204778249Y-92078249D03*
X206121751Y-93421751D03*
%TD*%
D10*
%TO.C,J4*%
X212175000Y-99530000D03*
D11*
X212175000Y-96990000D03*
X212175000Y-94450000D03*
X212175000Y-91910000D03*
X212175000Y-89370000D03*
X212175000Y-86830000D03*
X212175000Y-84290000D03*
X212175000Y-79210000D03*
X212175000Y-76670000D03*
X212175000Y-74130000D03*
X212175000Y-71590000D03*
%TD*%
D12*
%TO.C,C5*%
X204468566Y-83403249D03*
X205812068Y-84746751D03*
%TD*%
D14*
%TO.C,J3*%
X161025000Y-70350000D03*
X161025000Y-76750000D03*
X161025000Y-71150000D03*
X161025000Y-75950000D03*
D15*
X161025000Y-72300000D03*
X161025000Y-73300000D03*
X161025000Y-73800000D03*
X161025000Y-74800000D03*
X161025000Y-75300000D03*
X161025000Y-74300000D03*
X161025000Y-72800000D03*
X161025000Y-71800000D03*
%TD*%
D16*
%TO.C,SW5*%
X183720000Y-71510000D03*
X183720000Y-75870000D03*
%TD*%
D17*
%TO.C,Y1*%
X202463540Y-87953858D03*
X204019175Y-86398223D03*
X202817094Y-85196142D03*
X201261459Y-86751777D03*
%TD*%
D18*
%TO.C,U2*%
X167750000Y-67830000D03*
X167750000Y-69100000D03*
X167750000Y-70370000D03*
X167750000Y-71640000D03*
X167750000Y-72910000D03*
X167750000Y-74180000D03*
X167750000Y-75450000D03*
X167750000Y-76720000D03*
X172700000Y-76720000D03*
X172700000Y-75450000D03*
X172700000Y-74180000D03*
X172700000Y-72910000D03*
X172700000Y-71640000D03*
X172700000Y-70370000D03*
X172700000Y-69100000D03*
X172700000Y-67830000D03*
%TD*%
D13*
%TO.C,SW4*%
X180890000Y-99110000D03*
X183390000Y-99110000D03*
X185890000Y-99110000D03*
X180890000Y-93310000D03*
X183390000Y-93310000D03*
X185890000Y-93310000D03*
%TD*%
D19*
%TO.C,Y2*%
X201491117Y-92133883D03*
X203258883Y-90366117D03*
%TD*%
D14*
%TO.C,J1*%
X161050000Y-84000000D03*
X161050000Y-90400000D03*
X161050000Y-84800000D03*
X161050000Y-89600000D03*
D15*
X161050000Y-85950000D03*
X161050000Y-86950000D03*
X161050000Y-87450000D03*
X161050000Y-88450000D03*
X161050000Y-88950000D03*
X161050000Y-87950000D03*
X161050000Y-86450000D03*
X161050000Y-85450000D03*
%TD*%
D20*
%TO.C,D2*%
X165475000Y-79150000D03*
X165475000Y-81025000D03*
%TD*%
D10*
%TO.C,J5*%
X208420000Y-67850000D03*
D11*
X205880000Y-67850000D03*
X203340000Y-67850000D03*
X200800000Y-67850000D03*
X198260000Y-67850000D03*
X195720000Y-67850000D03*
X193180000Y-67850000D03*
X190640000Y-67850000D03*
X188100000Y-67850000D03*
X185560000Y-67850000D03*
X180480000Y-67850000D03*
%TD*%
D10*
%TO.C,J7*%
X180545000Y-103175000D03*
D11*
X183085000Y-103175000D03*
X185625000Y-103175000D03*
X188165000Y-103175000D03*
X190705000Y-103175000D03*
X193245000Y-103175000D03*
X195785000Y-103175000D03*
X198325000Y-103175000D03*
X200865000Y-103175000D03*
X203405000Y-103175000D03*
X208485000Y-103175000D03*
%TD*%
D20*
%TO.C,D1*%
X162600000Y-79275000D03*
X162600000Y-81150000D03*
%TD*%
D13*
%TO.C,SW2*%
X168437500Y-84035000D03*
X165937500Y-84035000D03*
X163437500Y-84035000D03*
X168437500Y-89835000D03*
X165937500Y-89835000D03*
X163437500Y-89835000D03*
%TD*%
D21*
%TO.C,U1*%
X198150000Y-88403858D03*
X198150000Y-87903858D03*
X198150000Y-87403858D03*
X198150000Y-86903858D03*
X198150000Y-86403858D03*
X198150000Y-85903858D03*
X198150000Y-85403858D03*
X198150000Y-84903858D03*
X198150000Y-84403858D03*
X198150000Y-83903858D03*
X198150000Y-83403858D03*
X198150000Y-82903858D03*
D22*
X196737500Y-81491358D03*
X196237500Y-81491358D03*
X195737500Y-81491358D03*
X195237500Y-81491358D03*
X194737500Y-81491358D03*
X194237500Y-81491358D03*
X193737500Y-81491358D03*
X193237500Y-81491358D03*
X192737500Y-81491358D03*
X192237500Y-81491358D03*
X191737500Y-81491358D03*
X191237500Y-81491358D03*
D21*
X189825000Y-82903858D03*
X189825000Y-83403858D03*
X189825000Y-83903858D03*
X189825000Y-84403858D03*
X189825000Y-84903858D03*
X189825000Y-85403858D03*
X189825000Y-85903858D03*
X189825000Y-86403858D03*
X189825000Y-86903858D03*
X189825000Y-87403858D03*
X189825000Y-87903858D03*
X189825000Y-88403858D03*
D22*
X191237500Y-89816358D03*
X191737500Y-89816358D03*
X192237500Y-89816358D03*
X192737500Y-89816358D03*
X193237500Y-89816358D03*
X193737500Y-89816358D03*
X194237500Y-89816358D03*
X194737500Y-89816358D03*
X195237500Y-89816358D03*
X195737500Y-89816358D03*
X196237500Y-89816358D03*
X196737500Y-89816358D03*
%TD*%
D23*
%TO.C,SW1*%
X173300000Y-101595000D03*
X173300000Y-99095000D03*
X173300000Y-96595000D03*
X167500000Y-101595000D03*
X167500000Y-99095000D03*
X167500000Y-96595000D03*
%TD*%
D24*
%TO.C,C4*%
X204518566Y-89221751D03*
X205862068Y-87878249D03*
%TD*%
M02*
