%TF.GenerationSoftware,KiCad,Pcbnew,9.0.8*%
%TF.CreationDate,2026-03-19T17:21:50+08:00*%
%TF.ProjectId,stm32pcb,73746d33-3270-4636-922e-6b696361645f,rev?*%
%TF.SameCoordinates,Original*%
%TF.FileFunction,Legend,Top*%
%TF.FilePolarity,Positive*%
%FSLAX46Y46*%
G04 Gerber Fmt 4.6, Leading zero omitted, Abs format (unit mm)*
G04 Created by KiCad (PCBNEW 9.0.8) date 2026-03-19 17:21:50*
%MOMM*%
%LPD*%
G01*
G04 APERTURE LIST*
G04 Aperture macros list*
%AMRoundRect*
0 Rectangle with rounded corners*
0 $1 Rounding radius*
0 $2 $3 $4 $5 $6 $7 $8 $9 X,Y pos of 4 corners*
0 Add a 4 corners polygon primitive as box body*
4,1,4,$2,$3,$4,$5,$6,$7,$8,$9,$2,$3,0*
0 Add four circle primitives for the rounded corners*
1,1,$1+$1,$2,$3*
1,1,$1+$1,$4,$5*
1,1,$1+$1,$6,$7*
1,1,$1+$1,$8,$9*
0 Add four rect primitives between the rounded corners*
20,1,$1+$1,$2,$3,$4,$5,0*
20,1,$1+$1,$4,$5,$6,$7,0*
20,1,$1+$1,$6,$7,$8,$9,0*
20,1,$1+$1,$8,$9,$2,$3,0*%
%AMRotRect*
0 Rectangle, with rotation*
0 The origin of the aperture is its center*
0 $1 length*
0 $2 width*
0 $3 Rotation angle, in degrees counterclockwise*
0 Add horizontal line*
21,1,$1,$2,0,0,$3*%
G04 Aperture macros list end*
%ADD10C,0.100000*%
%ADD11C,0.150000*%
%ADD12C,0.120000*%
%ADD13C,0.250000*%
%ADD14R,1.700000X1.700000*%
%ADD15C,1.700000*%
%ADD16RoundRect,0.250000X-0.512652X-0.159099X-0.159099X-0.512652X0.512652X0.159099X0.159099X0.512652X0*%
%ADD17R,1.200000X2.000000*%
%ADD18R,1.150000X0.600000*%
%ADD19R,1.150000X0.300000*%
%ADD20O,1.600000X1.000000*%
%ADD21O,1.900000X1.000000*%
%ADD22R,1.860000X1.230000*%
%ADD23RoundRect,0.250000X-0.070711X-0.565685X0.565685X0.070711X0.070711X0.565685X-0.565685X-0.070711X0*%
%ADD24RoundRect,0.150000X-0.825000X-0.150000X0.825000X-0.150000X0.825000X0.150000X-0.825000X0.150000X0*%
%ADD25RotRect,1.000000X1.800000X225.000000*%
%ADD26RoundRect,0.243750X-0.456250X0.243750X-0.456250X-0.243750X0.456250X-0.243750X0.456250X0.243750X0*%
%ADD27RoundRect,0.075000X0.662500X0.075000X-0.662500X0.075000X-0.662500X-0.075000X0.662500X-0.075000X0*%
%ADD28RoundRect,0.075000X0.075000X0.662500X-0.075000X0.662500X-0.075000X-0.662500X0.075000X-0.662500X0*%
%ADD29R,2.000000X1.200000*%
%ADD30RoundRect,0.250000X0.159099X-0.512652X0.512652X-0.159099X-0.159099X0.512652X-0.512652X0.159099X0*%
G04 APERTURE END LIST*
D10*
X163155074Y-82151109D02*
X163250312Y-82151109D01*
X163250312Y-82151109D02*
X163297931Y-82174919D01*
X163297931Y-82174919D02*
X163345550Y-82222538D01*
X163345550Y-82222538D02*
X163369360Y-82317776D01*
X163369360Y-82317776D02*
X163369360Y-82484442D01*
X163369360Y-82484442D02*
X163345550Y-82579680D01*
X163345550Y-82579680D02*
X163297931Y-82627300D01*
X163297931Y-82627300D02*
X163250312Y-82651109D01*
X163250312Y-82651109D02*
X163155074Y-82651109D01*
X163155074Y-82651109D02*
X163107455Y-82627300D01*
X163107455Y-82627300D02*
X163059836Y-82579680D01*
X163059836Y-82579680D02*
X163036027Y-82484442D01*
X163036027Y-82484442D02*
X163036027Y-82317776D01*
X163036027Y-82317776D02*
X163059836Y-82222538D01*
X163059836Y-82222538D02*
X163107455Y-82174919D01*
X163107455Y-82174919D02*
X163155074Y-82151109D01*
X163512218Y-82317776D02*
X163702694Y-82317776D01*
X163583646Y-82651109D02*
X163583646Y-82222538D01*
X163583646Y-82222538D02*
X163607456Y-82174919D01*
X163607456Y-82174919D02*
X163655075Y-82151109D01*
X163655075Y-82151109D02*
X163702694Y-82151109D01*
X163797932Y-82317776D02*
X163988408Y-82317776D01*
X163869360Y-82651109D02*
X163869360Y-82222538D01*
X163869360Y-82222538D02*
X163893170Y-82174919D01*
X163893170Y-82174919D02*
X163940789Y-82151109D01*
X163940789Y-82151109D02*
X163988408Y-82151109D01*
X168105074Y-82151109D02*
X168200312Y-82151109D01*
X168200312Y-82151109D02*
X168247931Y-82174919D01*
X168247931Y-82174919D02*
X168295550Y-82222538D01*
X168295550Y-82222538D02*
X168319360Y-82317776D01*
X168319360Y-82317776D02*
X168319360Y-82484442D01*
X168319360Y-82484442D02*
X168295550Y-82579680D01*
X168295550Y-82579680D02*
X168247931Y-82627300D01*
X168247931Y-82627300D02*
X168200312Y-82651109D01*
X168200312Y-82651109D02*
X168105074Y-82651109D01*
X168105074Y-82651109D02*
X168057455Y-82627300D01*
X168057455Y-82627300D02*
X168009836Y-82579680D01*
X168009836Y-82579680D02*
X167986027Y-82484442D01*
X167986027Y-82484442D02*
X167986027Y-82317776D01*
X167986027Y-82317776D02*
X168009836Y-82222538D01*
X168009836Y-82222538D02*
X168057455Y-82174919D01*
X168057455Y-82174919D02*
X168105074Y-82151109D01*
X168533646Y-82317776D02*
X168533646Y-82651109D01*
X168533646Y-82365395D02*
X168557456Y-82341585D01*
X168557456Y-82341585D02*
X168605075Y-82317776D01*
X168605075Y-82317776D02*
X168676503Y-82317776D01*
X168676503Y-82317776D02*
X168724122Y-82341585D01*
X168724122Y-82341585D02*
X168747932Y-82389204D01*
X168747932Y-82389204D02*
X168747932Y-82651109D01*
X188887217Y-91226109D02*
X189196741Y-91226109D01*
X189196741Y-91226109D02*
X189030074Y-91416585D01*
X189030074Y-91416585D02*
X189101503Y-91416585D01*
X189101503Y-91416585D02*
X189149122Y-91440395D01*
X189149122Y-91440395D02*
X189172931Y-91464204D01*
X189172931Y-91464204D02*
X189196741Y-91511823D01*
X189196741Y-91511823D02*
X189196741Y-91630871D01*
X189196741Y-91630871D02*
X189172931Y-91678490D01*
X189172931Y-91678490D02*
X189149122Y-91702300D01*
X189149122Y-91702300D02*
X189101503Y-91726109D01*
X189101503Y-91726109D02*
X188958646Y-91726109D01*
X188958646Y-91726109D02*
X188911027Y-91702300D01*
X188911027Y-91702300D02*
X188887217Y-91678490D01*
X189339598Y-91226109D02*
X189506264Y-91726109D01*
X189506264Y-91726109D02*
X189672931Y-91226109D01*
X189791978Y-91226109D02*
X190101502Y-91226109D01*
X190101502Y-91226109D02*
X189934835Y-91416585D01*
X189934835Y-91416585D02*
X190006264Y-91416585D01*
X190006264Y-91416585D02*
X190053883Y-91440395D01*
X190053883Y-91440395D02*
X190077692Y-91464204D01*
X190077692Y-91464204D02*
X190101502Y-91511823D01*
X190101502Y-91511823D02*
X190101502Y-91630871D01*
X190101502Y-91630871D02*
X190077692Y-91678490D01*
X190077692Y-91678490D02*
X190053883Y-91702300D01*
X190053883Y-91702300D02*
X190006264Y-91726109D01*
X190006264Y-91726109D02*
X189863407Y-91726109D01*
X189863407Y-91726109D02*
X189815788Y-91702300D01*
X189815788Y-91702300D02*
X189791978Y-91678490D01*
X180287217Y-91226109D02*
X180596741Y-91226109D01*
X180596741Y-91226109D02*
X180430074Y-91416585D01*
X180430074Y-91416585D02*
X180501503Y-91416585D01*
X180501503Y-91416585D02*
X180549122Y-91440395D01*
X180549122Y-91440395D02*
X180572931Y-91464204D01*
X180572931Y-91464204D02*
X180596741Y-91511823D01*
X180596741Y-91511823D02*
X180596741Y-91630871D01*
X180596741Y-91630871D02*
X180572931Y-91678490D01*
X180572931Y-91678490D02*
X180549122Y-91702300D01*
X180549122Y-91702300D02*
X180501503Y-91726109D01*
X180501503Y-91726109D02*
X180358646Y-91726109D01*
X180358646Y-91726109D02*
X180311027Y-91702300D01*
X180311027Y-91702300D02*
X180287217Y-91678490D01*
X180739598Y-91226109D02*
X180906264Y-91726109D01*
X180906264Y-91726109D02*
X181072931Y-91226109D01*
X181191978Y-91226109D02*
X181501502Y-91226109D01*
X181501502Y-91226109D02*
X181334835Y-91416585D01*
X181334835Y-91416585D02*
X181406264Y-91416585D01*
X181406264Y-91416585D02*
X181453883Y-91440395D01*
X181453883Y-91440395D02*
X181477692Y-91464204D01*
X181477692Y-91464204D02*
X181501502Y-91511823D01*
X181501502Y-91511823D02*
X181501502Y-91630871D01*
X181501502Y-91630871D02*
X181477692Y-91678490D01*
X181477692Y-91678490D02*
X181453883Y-91702300D01*
X181453883Y-91702300D02*
X181406264Y-91726109D01*
X181406264Y-91726109D02*
X181263407Y-91726109D01*
X181263407Y-91726109D02*
X181215788Y-91702300D01*
X181215788Y-91702300D02*
X181191978Y-91678490D01*
X194146741Y-91249919D02*
X194099122Y-91226109D01*
X194099122Y-91226109D02*
X194027693Y-91226109D01*
X194027693Y-91226109D02*
X193956265Y-91249919D01*
X193956265Y-91249919D02*
X193908646Y-91297538D01*
X193908646Y-91297538D02*
X193884836Y-91345157D01*
X193884836Y-91345157D02*
X193861027Y-91440395D01*
X193861027Y-91440395D02*
X193861027Y-91511823D01*
X193861027Y-91511823D02*
X193884836Y-91607061D01*
X193884836Y-91607061D02*
X193908646Y-91654680D01*
X193908646Y-91654680D02*
X193956265Y-91702300D01*
X193956265Y-91702300D02*
X194027693Y-91726109D01*
X194027693Y-91726109D02*
X194075312Y-91726109D01*
X194075312Y-91726109D02*
X194146741Y-91702300D01*
X194146741Y-91702300D02*
X194170550Y-91678490D01*
X194170550Y-91678490D02*
X194170550Y-91511823D01*
X194170550Y-91511823D02*
X194075312Y-91511823D01*
X194384836Y-91726109D02*
X194384836Y-91226109D01*
X194384836Y-91226109D02*
X194670550Y-91726109D01*
X194670550Y-91726109D02*
X194670550Y-91226109D01*
X194908646Y-91726109D02*
X194908646Y-91226109D01*
X194908646Y-91226109D02*
X195027694Y-91226109D01*
X195027694Y-91226109D02*
X195099122Y-91249919D01*
X195099122Y-91249919D02*
X195146741Y-91297538D01*
X195146741Y-91297538D02*
X195170551Y-91345157D01*
X195170551Y-91345157D02*
X195194360Y-91440395D01*
X195194360Y-91440395D02*
X195194360Y-91511823D01*
X195194360Y-91511823D02*
X195170551Y-91607061D01*
X195170551Y-91607061D02*
X195146741Y-91654680D01*
X195146741Y-91654680D02*
X195099122Y-91702300D01*
X195099122Y-91702300D02*
X195027694Y-91726109D01*
X195027694Y-91726109D02*
X194908646Y-91726109D01*
X185471741Y-91249919D02*
X185424122Y-91226109D01*
X185424122Y-91226109D02*
X185352693Y-91226109D01*
X185352693Y-91226109D02*
X185281265Y-91249919D01*
X185281265Y-91249919D02*
X185233646Y-91297538D01*
X185233646Y-91297538D02*
X185209836Y-91345157D01*
X185209836Y-91345157D02*
X185186027Y-91440395D01*
X185186027Y-91440395D02*
X185186027Y-91511823D01*
X185186027Y-91511823D02*
X185209836Y-91607061D01*
X185209836Y-91607061D02*
X185233646Y-91654680D01*
X185233646Y-91654680D02*
X185281265Y-91702300D01*
X185281265Y-91702300D02*
X185352693Y-91726109D01*
X185352693Y-91726109D02*
X185400312Y-91726109D01*
X185400312Y-91726109D02*
X185471741Y-91702300D01*
X185471741Y-91702300D02*
X185495550Y-91678490D01*
X185495550Y-91678490D02*
X185495550Y-91511823D01*
X185495550Y-91511823D02*
X185400312Y-91511823D01*
X185709836Y-91726109D02*
X185709836Y-91226109D01*
X185709836Y-91226109D02*
X185995550Y-91726109D01*
X185995550Y-91726109D02*
X185995550Y-91226109D01*
X186233646Y-91726109D02*
X186233646Y-91226109D01*
X186233646Y-91226109D02*
X186352694Y-91226109D01*
X186352694Y-91226109D02*
X186424122Y-91249919D01*
X186424122Y-91249919D02*
X186471741Y-91297538D01*
X186471741Y-91297538D02*
X186495551Y-91345157D01*
X186495551Y-91345157D02*
X186519360Y-91440395D01*
X186519360Y-91440395D02*
X186519360Y-91511823D01*
X186519360Y-91511823D02*
X186495551Y-91607061D01*
X186495551Y-91607061D02*
X186471741Y-91654680D01*
X186471741Y-91654680D02*
X186424122Y-91702300D01*
X186424122Y-91702300D02*
X186352694Y-91726109D01*
X186352694Y-91726109D02*
X186233646Y-91726109D01*
D11*
X161339160Y-92457200D02*
X161482017Y-92504819D01*
X161482017Y-92504819D02*
X161720112Y-92504819D01*
X161720112Y-92504819D02*
X161815350Y-92457200D01*
X161815350Y-92457200D02*
X161862969Y-92409580D01*
X161862969Y-92409580D02*
X161910588Y-92314342D01*
X161910588Y-92314342D02*
X161910588Y-92219104D01*
X161910588Y-92219104D02*
X161862969Y-92123866D01*
X161862969Y-92123866D02*
X161815350Y-92076247D01*
X161815350Y-92076247D02*
X161720112Y-92028628D01*
X161720112Y-92028628D02*
X161529636Y-91981009D01*
X161529636Y-91981009D02*
X161434398Y-91933390D01*
X161434398Y-91933390D02*
X161386779Y-91885771D01*
X161386779Y-91885771D02*
X161339160Y-91790533D01*
X161339160Y-91790533D02*
X161339160Y-91695295D01*
X161339160Y-91695295D02*
X161386779Y-91600057D01*
X161386779Y-91600057D02*
X161434398Y-91552438D01*
X161434398Y-91552438D02*
X161529636Y-91504819D01*
X161529636Y-91504819D02*
X161767731Y-91504819D01*
X161767731Y-91504819D02*
X161910588Y-91552438D01*
X162196303Y-91504819D02*
X162767731Y-91504819D01*
X162482017Y-92504819D02*
X162482017Y-91504819D01*
X163101065Y-92504819D02*
X163101065Y-91504819D01*
X163101065Y-91504819D02*
X163434398Y-92219104D01*
X163434398Y-92219104D02*
X163767731Y-91504819D01*
X163767731Y-91504819D02*
X163767731Y-92504819D01*
X164148684Y-91504819D02*
X164767731Y-91504819D01*
X164767731Y-91504819D02*
X164434398Y-91885771D01*
X164434398Y-91885771D02*
X164577255Y-91885771D01*
X164577255Y-91885771D02*
X164672493Y-91933390D01*
X164672493Y-91933390D02*
X164720112Y-91981009D01*
X164720112Y-91981009D02*
X164767731Y-92076247D01*
X164767731Y-92076247D02*
X164767731Y-92314342D01*
X164767731Y-92314342D02*
X164720112Y-92409580D01*
X164720112Y-92409580D02*
X164672493Y-92457200D01*
X164672493Y-92457200D02*
X164577255Y-92504819D01*
X164577255Y-92504819D02*
X164291541Y-92504819D01*
X164291541Y-92504819D02*
X164196303Y-92457200D01*
X164196303Y-92457200D02*
X164148684Y-92409580D01*
X165148684Y-91600057D02*
X165196303Y-91552438D01*
X165196303Y-91552438D02*
X165291541Y-91504819D01*
X165291541Y-91504819D02*
X165529636Y-91504819D01*
X165529636Y-91504819D02*
X165624874Y-91552438D01*
X165624874Y-91552438D02*
X165672493Y-91600057D01*
X165672493Y-91600057D02*
X165720112Y-91695295D01*
X165720112Y-91695295D02*
X165720112Y-91790533D01*
X165720112Y-91790533D02*
X165672493Y-91933390D01*
X165672493Y-91933390D02*
X165101065Y-92504819D01*
X165101065Y-92504819D02*
X165720112Y-92504819D01*
X166148684Y-92123866D02*
X166910589Y-92123866D01*
X167386779Y-91504819D02*
X167386779Y-92314342D01*
X167386779Y-92314342D02*
X167434398Y-92409580D01*
X167434398Y-92409580D02*
X167482017Y-92457200D01*
X167482017Y-92457200D02*
X167577255Y-92504819D01*
X167577255Y-92504819D02*
X167767731Y-92504819D01*
X167767731Y-92504819D02*
X167862969Y-92457200D01*
X167862969Y-92457200D02*
X167910588Y-92409580D01*
X167910588Y-92409580D02*
X167958207Y-92314342D01*
X167958207Y-92314342D02*
X167958207Y-91504819D01*
X168386779Y-92457200D02*
X168529636Y-92504819D01*
X168529636Y-92504819D02*
X168767731Y-92504819D01*
X168767731Y-92504819D02*
X168862969Y-92457200D01*
X168862969Y-92457200D02*
X168910588Y-92409580D01*
X168910588Y-92409580D02*
X168958207Y-92314342D01*
X168958207Y-92314342D02*
X168958207Y-92219104D01*
X168958207Y-92219104D02*
X168910588Y-92123866D01*
X168910588Y-92123866D02*
X168862969Y-92076247D01*
X168862969Y-92076247D02*
X168767731Y-92028628D01*
X168767731Y-92028628D02*
X168577255Y-91981009D01*
X168577255Y-91981009D02*
X168482017Y-91933390D01*
X168482017Y-91933390D02*
X168434398Y-91885771D01*
X168434398Y-91885771D02*
X168386779Y-91790533D01*
X168386779Y-91790533D02*
X168386779Y-91695295D01*
X168386779Y-91695295D02*
X168434398Y-91600057D01*
X168434398Y-91600057D02*
X168482017Y-91552438D01*
X168482017Y-91552438D02*
X168577255Y-91504819D01*
X168577255Y-91504819D02*
X168815350Y-91504819D01*
X168815350Y-91504819D02*
X168958207Y-91552438D01*
X169720112Y-91981009D02*
X169862969Y-92028628D01*
X169862969Y-92028628D02*
X169910588Y-92076247D01*
X169910588Y-92076247D02*
X169958207Y-92171485D01*
X169958207Y-92171485D02*
X169958207Y-92314342D01*
X169958207Y-92314342D02*
X169910588Y-92409580D01*
X169910588Y-92409580D02*
X169862969Y-92457200D01*
X169862969Y-92457200D02*
X169767731Y-92504819D01*
X169767731Y-92504819D02*
X169386779Y-92504819D01*
X169386779Y-92504819D02*
X169386779Y-91504819D01*
X169386779Y-91504819D02*
X169720112Y-91504819D01*
X169720112Y-91504819D02*
X169815350Y-91552438D01*
X169815350Y-91552438D02*
X169862969Y-91600057D01*
X169862969Y-91600057D02*
X169910588Y-91695295D01*
X169910588Y-91695295D02*
X169910588Y-91790533D01*
X169910588Y-91790533D02*
X169862969Y-91885771D01*
X169862969Y-91885771D02*
X169815350Y-91933390D01*
X169815350Y-91933390D02*
X169720112Y-91981009D01*
X169720112Y-91981009D02*
X169386779Y-91981009D01*
X155458207Y-66934580D02*
X155410588Y-66982200D01*
X155410588Y-66982200D02*
X155267731Y-67029819D01*
X155267731Y-67029819D02*
X155172493Y-67029819D01*
X155172493Y-67029819D02*
X155029636Y-66982200D01*
X155029636Y-66982200D02*
X154934398Y-66886961D01*
X154934398Y-66886961D02*
X154886779Y-66791723D01*
X154886779Y-66791723D02*
X154839160Y-66601247D01*
X154839160Y-66601247D02*
X154839160Y-66458390D01*
X154839160Y-66458390D02*
X154886779Y-66267914D01*
X154886779Y-66267914D02*
X154934398Y-66172676D01*
X154934398Y-66172676D02*
X155029636Y-66077438D01*
X155029636Y-66077438D02*
X155172493Y-66029819D01*
X155172493Y-66029819D02*
X155267731Y-66029819D01*
X155267731Y-66029819D02*
X155410588Y-66077438D01*
X155410588Y-66077438D02*
X155458207Y-66125057D01*
X155886779Y-67029819D02*
X155886779Y-66029819D01*
X155886779Y-66506009D02*
X156458207Y-66506009D01*
X156458207Y-67029819D02*
X156458207Y-66029819D01*
X156839160Y-66029819D02*
X157458207Y-66029819D01*
X157458207Y-66029819D02*
X157124874Y-66410771D01*
X157124874Y-66410771D02*
X157267731Y-66410771D01*
X157267731Y-66410771D02*
X157362969Y-66458390D01*
X157362969Y-66458390D02*
X157410588Y-66506009D01*
X157410588Y-66506009D02*
X157458207Y-66601247D01*
X157458207Y-66601247D02*
X157458207Y-66839342D01*
X157458207Y-66839342D02*
X157410588Y-66934580D01*
X157410588Y-66934580D02*
X157362969Y-66982200D01*
X157362969Y-66982200D02*
X157267731Y-67029819D01*
X157267731Y-67029819D02*
X156982017Y-67029819D01*
X156982017Y-67029819D02*
X156886779Y-66982200D01*
X156886779Y-66982200D02*
X156839160Y-66934580D01*
X158315350Y-66363152D02*
X158315350Y-67029819D01*
X158077255Y-65982200D02*
X157839160Y-66696485D01*
X157839160Y-66696485D02*
X158458207Y-66696485D01*
X159029636Y-66029819D02*
X159124874Y-66029819D01*
X159124874Y-66029819D02*
X159220112Y-66077438D01*
X159220112Y-66077438D02*
X159267731Y-66125057D01*
X159267731Y-66125057D02*
X159315350Y-66220295D01*
X159315350Y-66220295D02*
X159362969Y-66410771D01*
X159362969Y-66410771D02*
X159362969Y-66648866D01*
X159362969Y-66648866D02*
X159315350Y-66839342D01*
X159315350Y-66839342D02*
X159267731Y-66934580D01*
X159267731Y-66934580D02*
X159220112Y-66982200D01*
X159220112Y-66982200D02*
X159124874Y-67029819D01*
X159124874Y-67029819D02*
X159029636Y-67029819D01*
X159029636Y-67029819D02*
X158934398Y-66982200D01*
X158934398Y-66982200D02*
X158886779Y-66934580D01*
X158886779Y-66934580D02*
X158839160Y-66839342D01*
X158839160Y-66839342D02*
X158791541Y-66648866D01*
X158791541Y-66648866D02*
X158791541Y-66410771D01*
X158791541Y-66410771D02*
X158839160Y-66220295D01*
X158839160Y-66220295D02*
X158886779Y-66125057D01*
X158886779Y-66125057D02*
X158934398Y-66077438D01*
X158934398Y-66077438D02*
X159029636Y-66029819D01*
X159791541Y-66648866D02*
X160553446Y-66648866D01*
X161029636Y-66029819D02*
X161029636Y-66839342D01*
X161029636Y-66839342D02*
X161077255Y-66934580D01*
X161077255Y-66934580D02*
X161124874Y-66982200D01*
X161124874Y-66982200D02*
X161220112Y-67029819D01*
X161220112Y-67029819D02*
X161410588Y-67029819D01*
X161410588Y-67029819D02*
X161505826Y-66982200D01*
X161505826Y-66982200D02*
X161553445Y-66934580D01*
X161553445Y-66934580D02*
X161601064Y-66839342D01*
X161601064Y-66839342D02*
X161601064Y-66029819D01*
X162029636Y-66982200D02*
X162172493Y-67029819D01*
X162172493Y-67029819D02*
X162410588Y-67029819D01*
X162410588Y-67029819D02*
X162505826Y-66982200D01*
X162505826Y-66982200D02*
X162553445Y-66934580D01*
X162553445Y-66934580D02*
X162601064Y-66839342D01*
X162601064Y-66839342D02*
X162601064Y-66744104D01*
X162601064Y-66744104D02*
X162553445Y-66648866D01*
X162553445Y-66648866D02*
X162505826Y-66601247D01*
X162505826Y-66601247D02*
X162410588Y-66553628D01*
X162410588Y-66553628D02*
X162220112Y-66506009D01*
X162220112Y-66506009D02*
X162124874Y-66458390D01*
X162124874Y-66458390D02*
X162077255Y-66410771D01*
X162077255Y-66410771D02*
X162029636Y-66315533D01*
X162029636Y-66315533D02*
X162029636Y-66220295D01*
X162029636Y-66220295D02*
X162077255Y-66125057D01*
X162077255Y-66125057D02*
X162124874Y-66077438D01*
X162124874Y-66077438D02*
X162220112Y-66029819D01*
X162220112Y-66029819D02*
X162458207Y-66029819D01*
X162458207Y-66029819D02*
X162601064Y-66077438D01*
X163362969Y-66506009D02*
X163505826Y-66553628D01*
X163505826Y-66553628D02*
X163553445Y-66601247D01*
X163553445Y-66601247D02*
X163601064Y-66696485D01*
X163601064Y-66696485D02*
X163601064Y-66839342D01*
X163601064Y-66839342D02*
X163553445Y-66934580D01*
X163553445Y-66934580D02*
X163505826Y-66982200D01*
X163505826Y-66982200D02*
X163410588Y-67029819D01*
X163410588Y-67029819D02*
X163029636Y-67029819D01*
X163029636Y-67029819D02*
X163029636Y-66029819D01*
X163029636Y-66029819D02*
X163362969Y-66029819D01*
X163362969Y-66029819D02*
X163458207Y-66077438D01*
X163458207Y-66077438D02*
X163505826Y-66125057D01*
X163505826Y-66125057D02*
X163553445Y-66220295D01*
X163553445Y-66220295D02*
X163553445Y-66315533D01*
X163553445Y-66315533D02*
X163505826Y-66410771D01*
X163505826Y-66410771D02*
X163458207Y-66458390D01*
X163458207Y-66458390D02*
X163362969Y-66506009D01*
X163362969Y-66506009D02*
X163029636Y-66506009D01*
X179520180Y-98741541D02*
X179520180Y-99360588D01*
X179520180Y-99360588D02*
X179139228Y-99027255D01*
X179139228Y-99027255D02*
X179139228Y-99170112D01*
X179139228Y-99170112D02*
X179091609Y-99265350D01*
X179091609Y-99265350D02*
X179043990Y-99312969D01*
X179043990Y-99312969D02*
X178948752Y-99360588D01*
X178948752Y-99360588D02*
X178710657Y-99360588D01*
X178710657Y-99360588D02*
X178615419Y-99312969D01*
X178615419Y-99312969D02*
X178567800Y-99265350D01*
X178567800Y-99265350D02*
X178520180Y-99170112D01*
X178520180Y-99170112D02*
X178520180Y-98884398D01*
X178520180Y-98884398D02*
X178567800Y-98789160D01*
X178567800Y-98789160D02*
X178615419Y-98741541D01*
X179520180Y-100217731D02*
X179520180Y-100027255D01*
X179520180Y-100027255D02*
X179472561Y-99932017D01*
X179472561Y-99932017D02*
X179424942Y-99884398D01*
X179424942Y-99884398D02*
X179282085Y-99789160D01*
X179282085Y-99789160D02*
X179091609Y-99741541D01*
X179091609Y-99741541D02*
X178710657Y-99741541D01*
X178710657Y-99741541D02*
X178615419Y-99789160D01*
X178615419Y-99789160D02*
X178567800Y-99836779D01*
X178567800Y-99836779D02*
X178520180Y-99932017D01*
X178520180Y-99932017D02*
X178520180Y-100122493D01*
X178520180Y-100122493D02*
X178567800Y-100217731D01*
X178567800Y-100217731D02*
X178615419Y-100265350D01*
X178615419Y-100265350D02*
X178710657Y-100312969D01*
X178710657Y-100312969D02*
X178948752Y-100312969D01*
X178948752Y-100312969D02*
X179043990Y-100265350D01*
X179043990Y-100265350D02*
X179091609Y-100217731D01*
X179091609Y-100217731D02*
X179139228Y-100122493D01*
X179139228Y-100122493D02*
X179139228Y-99932017D01*
X179139228Y-99932017D02*
X179091609Y-99836779D01*
X179091609Y-99836779D02*
X179043990Y-99789160D01*
X179043990Y-99789160D02*
X178948752Y-99741541D01*
X205600350Y-100888152D02*
X205600350Y-101554819D01*
X205362255Y-100507200D02*
X205124160Y-101221485D01*
X205124160Y-101221485D02*
X205743207Y-101221485D01*
X206028922Y-100554819D02*
X206695588Y-100554819D01*
X206695588Y-100554819D02*
X206267017Y-101554819D01*
X167061779Y-104304819D02*
X167061779Y-103304819D01*
X167061779Y-103304819D02*
X167442731Y-103304819D01*
X167442731Y-103304819D02*
X167537969Y-103352438D01*
X167537969Y-103352438D02*
X167585588Y-103400057D01*
X167585588Y-103400057D02*
X167633207Y-103495295D01*
X167633207Y-103495295D02*
X167633207Y-103638152D01*
X167633207Y-103638152D02*
X167585588Y-103733390D01*
X167585588Y-103733390D02*
X167537969Y-103781009D01*
X167537969Y-103781009D02*
X167442731Y-103828628D01*
X167442731Y-103828628D02*
X167061779Y-103828628D01*
X168204636Y-104304819D02*
X168109398Y-104257200D01*
X168109398Y-104257200D02*
X168061779Y-104209580D01*
X168061779Y-104209580D02*
X168014160Y-104114342D01*
X168014160Y-104114342D02*
X168014160Y-103828628D01*
X168014160Y-103828628D02*
X168061779Y-103733390D01*
X168061779Y-103733390D02*
X168109398Y-103685771D01*
X168109398Y-103685771D02*
X168204636Y-103638152D01*
X168204636Y-103638152D02*
X168347493Y-103638152D01*
X168347493Y-103638152D02*
X168442731Y-103685771D01*
X168442731Y-103685771D02*
X168490350Y-103733390D01*
X168490350Y-103733390D02*
X168537969Y-103828628D01*
X168537969Y-103828628D02*
X168537969Y-104114342D01*
X168537969Y-104114342D02*
X168490350Y-104209580D01*
X168490350Y-104209580D02*
X168442731Y-104257200D01*
X168442731Y-104257200D02*
X168347493Y-104304819D01*
X168347493Y-104304819D02*
X168204636Y-104304819D01*
X168871303Y-103638152D02*
X169061779Y-104304819D01*
X169061779Y-104304819D02*
X169252255Y-103828628D01*
X169252255Y-103828628D02*
X169442731Y-104304819D01*
X169442731Y-104304819D02*
X169633207Y-103638152D01*
X170395112Y-104257200D02*
X170299874Y-104304819D01*
X170299874Y-104304819D02*
X170109398Y-104304819D01*
X170109398Y-104304819D02*
X170014160Y-104257200D01*
X170014160Y-104257200D02*
X169966541Y-104161961D01*
X169966541Y-104161961D02*
X169966541Y-103781009D01*
X169966541Y-103781009D02*
X170014160Y-103685771D01*
X170014160Y-103685771D02*
X170109398Y-103638152D01*
X170109398Y-103638152D02*
X170299874Y-103638152D01*
X170299874Y-103638152D02*
X170395112Y-103685771D01*
X170395112Y-103685771D02*
X170442731Y-103781009D01*
X170442731Y-103781009D02*
X170442731Y-103876247D01*
X170442731Y-103876247D02*
X169966541Y-103971485D01*
X170871303Y-104304819D02*
X170871303Y-103638152D01*
X170871303Y-103828628D02*
X170918922Y-103733390D01*
X170918922Y-103733390D02*
X170966541Y-103685771D01*
X170966541Y-103685771D02*
X171061779Y-103638152D01*
X171061779Y-103638152D02*
X171157017Y-103638152D01*
X172204637Y-104257200D02*
X172347494Y-104304819D01*
X172347494Y-104304819D02*
X172585589Y-104304819D01*
X172585589Y-104304819D02*
X172680827Y-104257200D01*
X172680827Y-104257200D02*
X172728446Y-104209580D01*
X172728446Y-104209580D02*
X172776065Y-104114342D01*
X172776065Y-104114342D02*
X172776065Y-104019104D01*
X172776065Y-104019104D02*
X172728446Y-103923866D01*
X172728446Y-103923866D02*
X172680827Y-103876247D01*
X172680827Y-103876247D02*
X172585589Y-103828628D01*
X172585589Y-103828628D02*
X172395113Y-103781009D01*
X172395113Y-103781009D02*
X172299875Y-103733390D01*
X172299875Y-103733390D02*
X172252256Y-103685771D01*
X172252256Y-103685771D02*
X172204637Y-103590533D01*
X172204637Y-103590533D02*
X172204637Y-103495295D01*
X172204637Y-103495295D02*
X172252256Y-103400057D01*
X172252256Y-103400057D02*
X172299875Y-103352438D01*
X172299875Y-103352438D02*
X172395113Y-103304819D01*
X172395113Y-103304819D02*
X172633208Y-103304819D01*
X172633208Y-103304819D02*
X172776065Y-103352438D01*
X173585589Y-104257200D02*
X173490351Y-104304819D01*
X173490351Y-104304819D02*
X173299875Y-104304819D01*
X173299875Y-104304819D02*
X173204637Y-104257200D01*
X173204637Y-104257200D02*
X173157018Y-104161961D01*
X173157018Y-104161961D02*
X173157018Y-103781009D01*
X173157018Y-103781009D02*
X173204637Y-103685771D01*
X173204637Y-103685771D02*
X173299875Y-103638152D01*
X173299875Y-103638152D02*
X173490351Y-103638152D01*
X173490351Y-103638152D02*
X173585589Y-103685771D01*
X173585589Y-103685771D02*
X173633208Y-103781009D01*
X173633208Y-103781009D02*
X173633208Y-103876247D01*
X173633208Y-103876247D02*
X173157018Y-103971485D01*
X174204637Y-104304819D02*
X174109399Y-104257200D01*
X174109399Y-104257200D02*
X174061780Y-104161961D01*
X174061780Y-104161961D02*
X174061780Y-103304819D01*
X174966542Y-104257200D02*
X174871304Y-104304819D01*
X174871304Y-104304819D02*
X174680828Y-104304819D01*
X174680828Y-104304819D02*
X174585590Y-104257200D01*
X174585590Y-104257200D02*
X174537971Y-104161961D01*
X174537971Y-104161961D02*
X174537971Y-103781009D01*
X174537971Y-103781009D02*
X174585590Y-103685771D01*
X174585590Y-103685771D02*
X174680828Y-103638152D01*
X174680828Y-103638152D02*
X174871304Y-103638152D01*
X174871304Y-103638152D02*
X174966542Y-103685771D01*
X174966542Y-103685771D02*
X175014161Y-103781009D01*
X175014161Y-103781009D02*
X175014161Y-103876247D01*
X175014161Y-103876247D02*
X174537971Y-103971485D01*
X175871304Y-104257200D02*
X175776066Y-104304819D01*
X175776066Y-104304819D02*
X175585590Y-104304819D01*
X175585590Y-104304819D02*
X175490352Y-104257200D01*
X175490352Y-104257200D02*
X175442733Y-104209580D01*
X175442733Y-104209580D02*
X175395114Y-104114342D01*
X175395114Y-104114342D02*
X175395114Y-103828628D01*
X175395114Y-103828628D02*
X175442733Y-103733390D01*
X175442733Y-103733390D02*
X175490352Y-103685771D01*
X175490352Y-103685771D02*
X175585590Y-103638152D01*
X175585590Y-103638152D02*
X175776066Y-103638152D01*
X175776066Y-103638152D02*
X175871304Y-103685771D01*
X176157019Y-103638152D02*
X176537971Y-103638152D01*
X176299876Y-103304819D02*
X176299876Y-104161961D01*
X176299876Y-104161961D02*
X176347495Y-104257200D01*
X176347495Y-104257200D02*
X176442733Y-104304819D01*
X176442733Y-104304819D02*
X176537971Y-104304819D01*
X210529819Y-76379411D02*
X210529819Y-76950839D01*
X210529819Y-76665125D02*
X209529819Y-76665125D01*
X209529819Y-76665125D02*
X209672676Y-76760363D01*
X209672676Y-76760363D02*
X209767914Y-76855601D01*
X209767914Y-76855601D02*
X209815533Y-76950839D01*
X209529819Y-75760363D02*
X209529819Y-75665125D01*
X209529819Y-75665125D02*
X209577438Y-75569887D01*
X209577438Y-75569887D02*
X209625057Y-75522268D01*
X209625057Y-75522268D02*
X209720295Y-75474649D01*
X209720295Y-75474649D02*
X209910771Y-75427030D01*
X209910771Y-75427030D02*
X210148866Y-75427030D01*
X210148866Y-75427030D02*
X210339342Y-75474649D01*
X210339342Y-75474649D02*
X210434580Y-75522268D01*
X210434580Y-75522268D02*
X210482200Y-75569887D01*
X210482200Y-75569887D02*
X210529819Y-75665125D01*
X210529819Y-75665125D02*
X210529819Y-75760363D01*
X210529819Y-75760363D02*
X210482200Y-75855601D01*
X210482200Y-75855601D02*
X210434580Y-75903220D01*
X210434580Y-75903220D02*
X210339342Y-75950839D01*
X210339342Y-75950839D02*
X210148866Y-75998458D01*
X210148866Y-75998458D02*
X209910771Y-75998458D01*
X209910771Y-75998458D02*
X209720295Y-75950839D01*
X209720295Y-75950839D02*
X209625057Y-75903220D01*
X209625057Y-75903220D02*
X209577438Y-75855601D01*
X209577438Y-75855601D02*
X209529819Y-75760363D01*
X209529819Y-86634649D02*
X209529819Y-86825125D01*
X209529819Y-86825125D02*
X209577438Y-86920363D01*
X209577438Y-86920363D02*
X209625057Y-86967982D01*
X209625057Y-86967982D02*
X209767914Y-87063220D01*
X209767914Y-87063220D02*
X209958390Y-87110839D01*
X209958390Y-87110839D02*
X210339342Y-87110839D01*
X210339342Y-87110839D02*
X210434580Y-87063220D01*
X210434580Y-87063220D02*
X210482200Y-87015601D01*
X210482200Y-87015601D02*
X210529819Y-86920363D01*
X210529819Y-86920363D02*
X210529819Y-86729887D01*
X210529819Y-86729887D02*
X210482200Y-86634649D01*
X210482200Y-86634649D02*
X210434580Y-86587030D01*
X210434580Y-86587030D02*
X210339342Y-86539411D01*
X210339342Y-86539411D02*
X210101247Y-86539411D01*
X210101247Y-86539411D02*
X210006009Y-86587030D01*
X210006009Y-86587030D02*
X209958390Y-86634649D01*
X209958390Y-86634649D02*
X209910771Y-86729887D01*
X209910771Y-86729887D02*
X209910771Y-86920363D01*
X209910771Y-86920363D02*
X209958390Y-87015601D01*
X209958390Y-87015601D02*
X210006009Y-87063220D01*
X210006009Y-87063220D02*
X210101247Y-87110839D01*
X195829411Y-69470180D02*
X196400839Y-69470180D01*
X196115125Y-69470180D02*
X196115125Y-70470180D01*
X196115125Y-70470180D02*
X196210363Y-70327323D01*
X196210363Y-70327323D02*
X196305601Y-70232085D01*
X196305601Y-70232085D02*
X196400839Y-70184466D01*
X195257982Y-70041609D02*
X195353220Y-70089228D01*
X195353220Y-70089228D02*
X195400839Y-70136847D01*
X195400839Y-70136847D02*
X195448458Y-70232085D01*
X195448458Y-70232085D02*
X195448458Y-70279704D01*
X195448458Y-70279704D02*
X195400839Y-70374942D01*
X195400839Y-70374942D02*
X195353220Y-70422561D01*
X195353220Y-70422561D02*
X195257982Y-70470180D01*
X195257982Y-70470180D02*
X195067506Y-70470180D01*
X195067506Y-70470180D02*
X194972268Y-70422561D01*
X194972268Y-70422561D02*
X194924649Y-70374942D01*
X194924649Y-70374942D02*
X194877030Y-70279704D01*
X194877030Y-70279704D02*
X194877030Y-70232085D01*
X194877030Y-70232085D02*
X194924649Y-70136847D01*
X194924649Y-70136847D02*
X194972268Y-70089228D01*
X194972268Y-70089228D02*
X195067506Y-70041609D01*
X195067506Y-70041609D02*
X195257982Y-70041609D01*
X195257982Y-70041609D02*
X195353220Y-69993990D01*
X195353220Y-69993990D02*
X195400839Y-69946371D01*
X195400839Y-69946371D02*
X195448458Y-69851133D01*
X195448458Y-69851133D02*
X195448458Y-69660657D01*
X195448458Y-69660657D02*
X195400839Y-69565419D01*
X195400839Y-69565419D02*
X195353220Y-69517800D01*
X195353220Y-69517800D02*
X195257982Y-69470180D01*
X195257982Y-69470180D02*
X195067506Y-69470180D01*
X195067506Y-69470180D02*
X194972268Y-69517800D01*
X194972268Y-69517800D02*
X194924649Y-69565419D01*
X194924649Y-69565419D02*
X194877030Y-69660657D01*
X194877030Y-69660657D02*
X194877030Y-69851133D01*
X194877030Y-69851133D02*
X194924649Y-69946371D01*
X194924649Y-69946371D02*
X194972268Y-69993990D01*
X194972268Y-69993990D02*
X195067506Y-70041609D01*
X210529819Y-73839411D02*
X210529819Y-74410839D01*
X210529819Y-74125125D02*
X209529819Y-74125125D01*
X209529819Y-74125125D02*
X209672676Y-74220363D01*
X209672676Y-74220363D02*
X209767914Y-74315601D01*
X209767914Y-74315601D02*
X209815533Y-74410839D01*
X210529819Y-72887030D02*
X210529819Y-73458458D01*
X210529819Y-73172744D02*
X209529819Y-73172744D01*
X209529819Y-73172744D02*
X209672676Y-73267982D01*
X209672676Y-73267982D02*
X209767914Y-73363220D01*
X209767914Y-73363220D02*
X209815533Y-73458458D01*
X161639160Y-94407200D02*
X161782017Y-94454819D01*
X161782017Y-94454819D02*
X162020112Y-94454819D01*
X162020112Y-94454819D02*
X162115350Y-94407200D01*
X162115350Y-94407200D02*
X162162969Y-94359580D01*
X162162969Y-94359580D02*
X162210588Y-94264342D01*
X162210588Y-94264342D02*
X162210588Y-94169104D01*
X162210588Y-94169104D02*
X162162969Y-94073866D01*
X162162969Y-94073866D02*
X162115350Y-94026247D01*
X162115350Y-94026247D02*
X162020112Y-93978628D01*
X162020112Y-93978628D02*
X161829636Y-93931009D01*
X161829636Y-93931009D02*
X161734398Y-93883390D01*
X161734398Y-93883390D02*
X161686779Y-93835771D01*
X161686779Y-93835771D02*
X161639160Y-93740533D01*
X161639160Y-93740533D02*
X161639160Y-93645295D01*
X161639160Y-93645295D02*
X161686779Y-93550057D01*
X161686779Y-93550057D02*
X161734398Y-93502438D01*
X161734398Y-93502438D02*
X161829636Y-93454819D01*
X161829636Y-93454819D02*
X162067731Y-93454819D01*
X162067731Y-93454819D02*
X162210588Y-93502438D01*
X162496303Y-93454819D02*
X163067731Y-93454819D01*
X162782017Y-94454819D02*
X162782017Y-93454819D01*
X163877255Y-94454819D02*
X163401065Y-94454819D01*
X163401065Y-94454819D02*
X163401065Y-93454819D01*
X164210589Y-94454819D02*
X164210589Y-93788152D01*
X164210589Y-93454819D02*
X164162970Y-93502438D01*
X164162970Y-93502438D02*
X164210589Y-93550057D01*
X164210589Y-93550057D02*
X164258208Y-93502438D01*
X164258208Y-93502438D02*
X164210589Y-93454819D01*
X164210589Y-93454819D02*
X164210589Y-93550057D01*
X164686779Y-93788152D02*
X164686779Y-94454819D01*
X164686779Y-93883390D02*
X164734398Y-93835771D01*
X164734398Y-93835771D02*
X164829636Y-93788152D01*
X164829636Y-93788152D02*
X164972493Y-93788152D01*
X164972493Y-93788152D02*
X165067731Y-93835771D01*
X165067731Y-93835771D02*
X165115350Y-93931009D01*
X165115350Y-93931009D02*
X165115350Y-94454819D01*
X165591541Y-94454819D02*
X165591541Y-93454819D01*
X165686779Y-94073866D02*
X165972493Y-94454819D01*
X165972493Y-93788152D02*
X165591541Y-94169104D01*
X184756541Y-100554819D02*
X185375588Y-100554819D01*
X185375588Y-100554819D02*
X185042255Y-100935771D01*
X185042255Y-100935771D02*
X185185112Y-100935771D01*
X185185112Y-100935771D02*
X185280350Y-100983390D01*
X185280350Y-100983390D02*
X185327969Y-101031009D01*
X185327969Y-101031009D02*
X185375588Y-101126247D01*
X185375588Y-101126247D02*
X185375588Y-101364342D01*
X185375588Y-101364342D02*
X185327969Y-101459580D01*
X185327969Y-101459580D02*
X185280350Y-101507200D01*
X185280350Y-101507200D02*
X185185112Y-101554819D01*
X185185112Y-101554819D02*
X184899398Y-101554819D01*
X184899398Y-101554819D02*
X184804160Y-101507200D01*
X184804160Y-101507200D02*
X184756541Y-101459580D01*
X185851779Y-101554819D02*
X186042255Y-101554819D01*
X186042255Y-101554819D02*
X186137493Y-101507200D01*
X186137493Y-101507200D02*
X186185112Y-101459580D01*
X186185112Y-101459580D02*
X186280350Y-101316723D01*
X186280350Y-101316723D02*
X186327969Y-101126247D01*
X186327969Y-101126247D02*
X186327969Y-100745295D01*
X186327969Y-100745295D02*
X186280350Y-100650057D01*
X186280350Y-100650057D02*
X186232731Y-100602438D01*
X186232731Y-100602438D02*
X186137493Y-100554819D01*
X186137493Y-100554819D02*
X185947017Y-100554819D01*
X185947017Y-100554819D02*
X185851779Y-100602438D01*
X185851779Y-100602438D02*
X185804160Y-100650057D01*
X185804160Y-100650057D02*
X185756541Y-100745295D01*
X185756541Y-100745295D02*
X185756541Y-100983390D01*
X185756541Y-100983390D02*
X185804160Y-101078628D01*
X185804160Y-101078628D02*
X185851779Y-101126247D01*
X185851779Y-101126247D02*
X185947017Y-101173866D01*
X185947017Y-101173866D02*
X186137493Y-101173866D01*
X186137493Y-101173866D02*
X186232731Y-101126247D01*
X186232731Y-101126247D02*
X186280350Y-101078628D01*
X186280350Y-101078628D02*
X186327969Y-100983390D01*
D10*
X170604449Y-95198890D02*
X170771115Y-95436985D01*
X170890163Y-95198890D02*
X170890163Y-95698890D01*
X170890163Y-95698890D02*
X170699687Y-95698890D01*
X170699687Y-95698890D02*
X170652068Y-95675080D01*
X170652068Y-95675080D02*
X170628258Y-95651271D01*
X170628258Y-95651271D02*
X170604449Y-95603652D01*
X170604449Y-95603652D02*
X170604449Y-95532223D01*
X170604449Y-95532223D02*
X170628258Y-95484604D01*
X170628258Y-95484604D02*
X170652068Y-95460795D01*
X170652068Y-95460795D02*
X170699687Y-95436985D01*
X170699687Y-95436985D02*
X170890163Y-95436985D01*
X170390163Y-95460795D02*
X170223496Y-95460795D01*
X170152068Y-95198890D02*
X170390163Y-95198890D01*
X170390163Y-95198890D02*
X170390163Y-95698890D01*
X170390163Y-95698890D02*
X170152068Y-95698890D01*
X169675877Y-95675080D02*
X169723496Y-95698890D01*
X169723496Y-95698890D02*
X169794925Y-95698890D01*
X169794925Y-95698890D02*
X169866353Y-95675080D01*
X169866353Y-95675080D02*
X169913972Y-95627461D01*
X169913972Y-95627461D02*
X169937782Y-95579842D01*
X169937782Y-95579842D02*
X169961591Y-95484604D01*
X169961591Y-95484604D02*
X169961591Y-95413176D01*
X169961591Y-95413176D02*
X169937782Y-95317938D01*
X169937782Y-95317938D02*
X169913972Y-95270319D01*
X169913972Y-95270319D02*
X169866353Y-95222700D01*
X169866353Y-95222700D02*
X169794925Y-95198890D01*
X169794925Y-95198890D02*
X169747306Y-95198890D01*
X169747306Y-95198890D02*
X169675877Y-95222700D01*
X169675877Y-95222700D02*
X169652068Y-95246509D01*
X169652068Y-95246509D02*
X169652068Y-95413176D01*
X169652068Y-95413176D02*
X169747306Y-95413176D01*
D11*
X191320839Y-70374942D02*
X191273220Y-70422561D01*
X191273220Y-70422561D02*
X191177982Y-70470180D01*
X191177982Y-70470180D02*
X190939887Y-70470180D01*
X190939887Y-70470180D02*
X190844649Y-70422561D01*
X190844649Y-70422561D02*
X190797030Y-70374942D01*
X190797030Y-70374942D02*
X190749411Y-70279704D01*
X190749411Y-70279704D02*
X190749411Y-70184466D01*
X190749411Y-70184466D02*
X190797030Y-70041609D01*
X190797030Y-70041609D02*
X191368458Y-69470180D01*
X191368458Y-69470180D02*
X190749411Y-69470180D01*
X190130363Y-70470180D02*
X190035125Y-70470180D01*
X190035125Y-70470180D02*
X189939887Y-70422561D01*
X189939887Y-70422561D02*
X189892268Y-70374942D01*
X189892268Y-70374942D02*
X189844649Y-70279704D01*
X189844649Y-70279704D02*
X189797030Y-70089228D01*
X189797030Y-70089228D02*
X189797030Y-69851133D01*
X189797030Y-69851133D02*
X189844649Y-69660657D01*
X189844649Y-69660657D02*
X189892268Y-69565419D01*
X189892268Y-69565419D02*
X189939887Y-69517800D01*
X189939887Y-69517800D02*
X190035125Y-69470180D01*
X190035125Y-69470180D02*
X190130363Y-69470180D01*
X190130363Y-69470180D02*
X190225601Y-69517800D01*
X190225601Y-69517800D02*
X190273220Y-69565419D01*
X190273220Y-69565419D02*
X190320839Y-69660657D01*
X190320839Y-69660657D02*
X190368458Y-69851133D01*
X190368458Y-69851133D02*
X190368458Y-70089228D01*
X190368458Y-70089228D02*
X190320839Y-70279704D01*
X190320839Y-70279704D02*
X190273220Y-70374942D01*
X190273220Y-70374942D02*
X190225601Y-70422561D01*
X190225601Y-70422561D02*
X190130363Y-70470180D01*
X195440350Y-100888152D02*
X195440350Y-101554819D01*
X195202255Y-100507200D02*
X194964160Y-101221485D01*
X194964160Y-101221485D02*
X195583207Y-101221485D01*
X195868922Y-100554819D02*
X196487969Y-100554819D01*
X196487969Y-100554819D02*
X196154636Y-100935771D01*
X196154636Y-100935771D02*
X196297493Y-100935771D01*
X196297493Y-100935771D02*
X196392731Y-100983390D01*
X196392731Y-100983390D02*
X196440350Y-101031009D01*
X196440350Y-101031009D02*
X196487969Y-101126247D01*
X196487969Y-101126247D02*
X196487969Y-101364342D01*
X196487969Y-101364342D02*
X196440350Y-101459580D01*
X196440350Y-101459580D02*
X196392731Y-101507200D01*
X196392731Y-101507200D02*
X196297493Y-101554819D01*
X196297493Y-101554819D02*
X196011779Y-101554819D01*
X196011779Y-101554819D02*
X195916541Y-101507200D01*
X195916541Y-101507200D02*
X195868922Y-101459580D01*
D10*
X166152300Y-100138972D02*
X166176109Y-100067544D01*
X166176109Y-100067544D02*
X166176109Y-99948496D01*
X166176109Y-99948496D02*
X166152300Y-99900877D01*
X166152300Y-99900877D02*
X166128490Y-99877068D01*
X166128490Y-99877068D02*
X166080871Y-99853258D01*
X166080871Y-99853258D02*
X166033252Y-99853258D01*
X166033252Y-99853258D02*
X165985633Y-99877068D01*
X165985633Y-99877068D02*
X165961823Y-99900877D01*
X165961823Y-99900877D02*
X165938014Y-99948496D01*
X165938014Y-99948496D02*
X165914204Y-100043734D01*
X165914204Y-100043734D02*
X165890395Y-100091353D01*
X165890395Y-100091353D02*
X165866585Y-100115163D01*
X165866585Y-100115163D02*
X165818966Y-100138972D01*
X165818966Y-100138972D02*
X165771347Y-100138972D01*
X165771347Y-100138972D02*
X165723728Y-100115163D01*
X165723728Y-100115163D02*
X165699919Y-100091353D01*
X165699919Y-100091353D02*
X165676109Y-100043734D01*
X165676109Y-100043734D02*
X165676109Y-99924687D01*
X165676109Y-99924687D02*
X165699919Y-99853258D01*
X165676109Y-99686592D02*
X166176109Y-99567544D01*
X166176109Y-99567544D02*
X165818966Y-99472306D01*
X165818966Y-99472306D02*
X166176109Y-99377068D01*
X166176109Y-99377068D02*
X165676109Y-99258021D01*
X166176109Y-99067544D02*
X165676109Y-99067544D01*
X165676109Y-99067544D02*
X165676109Y-98948496D01*
X165676109Y-98948496D02*
X165699919Y-98877068D01*
X165699919Y-98877068D02*
X165747538Y-98829449D01*
X165747538Y-98829449D02*
X165795157Y-98805639D01*
X165795157Y-98805639D02*
X165890395Y-98781830D01*
X165890395Y-98781830D02*
X165961823Y-98781830D01*
X165961823Y-98781830D02*
X166057061Y-98805639D01*
X166057061Y-98805639D02*
X166104680Y-98829449D01*
X166104680Y-98829449D02*
X166152300Y-98877068D01*
X166152300Y-98877068D02*
X166176109Y-98948496D01*
X166176109Y-98948496D02*
X166176109Y-99067544D01*
X166176109Y-98567544D02*
X165676109Y-98567544D01*
X165676109Y-98234211D02*
X165676109Y-98138973D01*
X165676109Y-98138973D02*
X165699919Y-98091354D01*
X165699919Y-98091354D02*
X165747538Y-98043735D01*
X165747538Y-98043735D02*
X165842776Y-98019925D01*
X165842776Y-98019925D02*
X166009442Y-98019925D01*
X166009442Y-98019925D02*
X166104680Y-98043735D01*
X166104680Y-98043735D02*
X166152300Y-98091354D01*
X166152300Y-98091354D02*
X166176109Y-98138973D01*
X166176109Y-98138973D02*
X166176109Y-98234211D01*
X166176109Y-98234211D02*
X166152300Y-98281830D01*
X166152300Y-98281830D02*
X166104680Y-98329449D01*
X166104680Y-98329449D02*
X166009442Y-98353258D01*
X166009442Y-98353258D02*
X165842776Y-98353258D01*
X165842776Y-98353258D02*
X165747538Y-98329449D01*
X165747538Y-98329449D02*
X165699919Y-98281830D01*
X165699919Y-98281830D02*
X165676109Y-98234211D01*
D11*
X190360350Y-100888152D02*
X190360350Y-101554819D01*
X190122255Y-100507200D02*
X189884160Y-101221485D01*
X189884160Y-101221485D02*
X190503207Y-101221485D01*
X191407969Y-101554819D02*
X190836541Y-101554819D01*
X191122255Y-101554819D02*
X191122255Y-100554819D01*
X191122255Y-100554819D02*
X191027017Y-100697676D01*
X191027017Y-100697676D02*
X190931779Y-100792914D01*
X190931779Y-100792914D02*
X190836541Y-100840533D01*
X179424942Y-70849160D02*
X179472561Y-70896779D01*
X179472561Y-70896779D02*
X179520180Y-70992017D01*
X179520180Y-70992017D02*
X179520180Y-71230112D01*
X179520180Y-71230112D02*
X179472561Y-71325350D01*
X179472561Y-71325350D02*
X179424942Y-71372969D01*
X179424942Y-71372969D02*
X179329704Y-71420588D01*
X179329704Y-71420588D02*
X179234466Y-71420588D01*
X179234466Y-71420588D02*
X179091609Y-71372969D01*
X179091609Y-71372969D02*
X178520180Y-70801541D01*
X178520180Y-70801541D02*
X178520180Y-71420588D01*
X179520180Y-72325350D02*
X179520180Y-71849160D01*
X179520180Y-71849160D02*
X179043990Y-71801541D01*
X179043990Y-71801541D02*
X179091609Y-71849160D01*
X179091609Y-71849160D02*
X179139228Y-71944398D01*
X179139228Y-71944398D02*
X179139228Y-72182493D01*
X179139228Y-72182493D02*
X179091609Y-72277731D01*
X179091609Y-72277731D02*
X179043990Y-72325350D01*
X179043990Y-72325350D02*
X178948752Y-72372969D01*
X178948752Y-72372969D02*
X178710657Y-72372969D01*
X178710657Y-72372969D02*
X178615419Y-72325350D01*
X178615419Y-72325350D02*
X178567800Y-72277731D01*
X178567800Y-72277731D02*
X178520180Y-72182493D01*
X178520180Y-72182493D02*
X178520180Y-71944398D01*
X178520180Y-71944398D02*
X178567800Y-71849160D01*
X178567800Y-71849160D02*
X178615419Y-71801541D01*
X203449411Y-69470180D02*
X204020839Y-69470180D01*
X203735125Y-69470180D02*
X203735125Y-70470180D01*
X203735125Y-70470180D02*
X203830363Y-70327323D01*
X203830363Y-70327323D02*
X203925601Y-70232085D01*
X203925601Y-70232085D02*
X204020839Y-70184466D01*
X202544649Y-70470180D02*
X203020839Y-70470180D01*
X203020839Y-70470180D02*
X203068458Y-69993990D01*
X203068458Y-69993990D02*
X203020839Y-70041609D01*
X203020839Y-70041609D02*
X202925601Y-70089228D01*
X202925601Y-70089228D02*
X202687506Y-70089228D01*
X202687506Y-70089228D02*
X202592268Y-70041609D01*
X202592268Y-70041609D02*
X202544649Y-69993990D01*
X202544649Y-69993990D02*
X202497030Y-69898752D01*
X202497030Y-69898752D02*
X202497030Y-69660657D01*
X202497030Y-69660657D02*
X202544649Y-69565419D01*
X202544649Y-69565419D02*
X202592268Y-69517800D01*
X202592268Y-69517800D02*
X202687506Y-69470180D01*
X202687506Y-69470180D02*
X202925601Y-69470180D01*
X202925601Y-69470180D02*
X203020839Y-69517800D01*
X203020839Y-69517800D02*
X203068458Y-69565419D01*
D10*
X165676109Y-104787782D02*
X165676109Y-104478258D01*
X165676109Y-104478258D02*
X165866585Y-104644925D01*
X165866585Y-104644925D02*
X165866585Y-104573496D01*
X165866585Y-104573496D02*
X165890395Y-104525877D01*
X165890395Y-104525877D02*
X165914204Y-104502068D01*
X165914204Y-104502068D02*
X165961823Y-104478258D01*
X165961823Y-104478258D02*
X166080871Y-104478258D01*
X166080871Y-104478258D02*
X166128490Y-104502068D01*
X166128490Y-104502068D02*
X166152300Y-104525877D01*
X166152300Y-104525877D02*
X166176109Y-104573496D01*
X166176109Y-104573496D02*
X166176109Y-104716353D01*
X166176109Y-104716353D02*
X166152300Y-104763972D01*
X166152300Y-104763972D02*
X166128490Y-104787782D01*
X165676109Y-104335401D02*
X166176109Y-104168735D01*
X166176109Y-104168735D02*
X165676109Y-104002068D01*
X165676109Y-103883021D02*
X165676109Y-103573497D01*
X165676109Y-103573497D02*
X165866585Y-103740164D01*
X165866585Y-103740164D02*
X165866585Y-103668735D01*
X165866585Y-103668735D02*
X165890395Y-103621116D01*
X165890395Y-103621116D02*
X165914204Y-103597307D01*
X165914204Y-103597307D02*
X165961823Y-103573497D01*
X165961823Y-103573497D02*
X166080871Y-103573497D01*
X166080871Y-103573497D02*
X166128490Y-103597307D01*
X166128490Y-103597307D02*
X166152300Y-103621116D01*
X166152300Y-103621116D02*
X166176109Y-103668735D01*
X166176109Y-103668735D02*
X166176109Y-103811592D01*
X166176109Y-103811592D02*
X166152300Y-103859211D01*
X166152300Y-103859211D02*
X166128490Y-103883021D01*
D11*
X182216541Y-100554819D02*
X182835588Y-100554819D01*
X182835588Y-100554819D02*
X182502255Y-100935771D01*
X182502255Y-100935771D02*
X182645112Y-100935771D01*
X182645112Y-100935771D02*
X182740350Y-100983390D01*
X182740350Y-100983390D02*
X182787969Y-101031009D01*
X182787969Y-101031009D02*
X182835588Y-101126247D01*
X182835588Y-101126247D02*
X182835588Y-101364342D01*
X182835588Y-101364342D02*
X182787969Y-101459580D01*
X182787969Y-101459580D02*
X182740350Y-101507200D01*
X182740350Y-101507200D02*
X182645112Y-101554819D01*
X182645112Y-101554819D02*
X182359398Y-101554819D01*
X182359398Y-101554819D02*
X182264160Y-101507200D01*
X182264160Y-101507200D02*
X182216541Y-101459580D01*
X183407017Y-100983390D02*
X183311779Y-100935771D01*
X183311779Y-100935771D02*
X183264160Y-100888152D01*
X183264160Y-100888152D02*
X183216541Y-100792914D01*
X183216541Y-100792914D02*
X183216541Y-100745295D01*
X183216541Y-100745295D02*
X183264160Y-100650057D01*
X183264160Y-100650057D02*
X183311779Y-100602438D01*
X183311779Y-100602438D02*
X183407017Y-100554819D01*
X183407017Y-100554819D02*
X183597493Y-100554819D01*
X183597493Y-100554819D02*
X183692731Y-100602438D01*
X183692731Y-100602438D02*
X183740350Y-100650057D01*
X183740350Y-100650057D02*
X183787969Y-100745295D01*
X183787969Y-100745295D02*
X183787969Y-100792914D01*
X183787969Y-100792914D02*
X183740350Y-100888152D01*
X183740350Y-100888152D02*
X183692731Y-100935771D01*
X183692731Y-100935771D02*
X183597493Y-100983390D01*
X183597493Y-100983390D02*
X183407017Y-100983390D01*
X183407017Y-100983390D02*
X183311779Y-101031009D01*
X183311779Y-101031009D02*
X183264160Y-101078628D01*
X183264160Y-101078628D02*
X183216541Y-101173866D01*
X183216541Y-101173866D02*
X183216541Y-101364342D01*
X183216541Y-101364342D02*
X183264160Y-101459580D01*
X183264160Y-101459580D02*
X183311779Y-101507200D01*
X183311779Y-101507200D02*
X183407017Y-101554819D01*
X183407017Y-101554819D02*
X183597493Y-101554819D01*
X183597493Y-101554819D02*
X183692731Y-101507200D01*
X183692731Y-101507200D02*
X183740350Y-101459580D01*
X183740350Y-101459580D02*
X183787969Y-101364342D01*
X183787969Y-101364342D02*
X183787969Y-101173866D01*
X183787969Y-101173866D02*
X183740350Y-101078628D01*
X183740350Y-101078628D02*
X183692731Y-101031009D01*
X183692731Y-101031009D02*
X183597493Y-100983390D01*
X203060350Y-100888152D02*
X203060350Y-101554819D01*
X202822255Y-100507200D02*
X202584160Y-101221485D01*
X202584160Y-101221485D02*
X203203207Y-101221485D01*
X204012731Y-100554819D02*
X203822255Y-100554819D01*
X203822255Y-100554819D02*
X203727017Y-100602438D01*
X203727017Y-100602438D02*
X203679398Y-100650057D01*
X203679398Y-100650057D02*
X203584160Y-100792914D01*
X203584160Y-100792914D02*
X203536541Y-100983390D01*
X203536541Y-100983390D02*
X203536541Y-101364342D01*
X203536541Y-101364342D02*
X203584160Y-101459580D01*
X203584160Y-101459580D02*
X203631779Y-101507200D01*
X203631779Y-101507200D02*
X203727017Y-101554819D01*
X203727017Y-101554819D02*
X203917493Y-101554819D01*
X203917493Y-101554819D02*
X204012731Y-101507200D01*
X204012731Y-101507200D02*
X204060350Y-101459580D01*
X204060350Y-101459580D02*
X204107969Y-101364342D01*
X204107969Y-101364342D02*
X204107969Y-101126247D01*
X204107969Y-101126247D02*
X204060350Y-101031009D01*
X204060350Y-101031009D02*
X204012731Y-100983390D01*
X204012731Y-100983390D02*
X203917493Y-100935771D01*
X203917493Y-100935771D02*
X203727017Y-100935771D01*
X203727017Y-100935771D02*
X203631779Y-100983390D01*
X203631779Y-100983390D02*
X203584160Y-101031009D01*
X203584160Y-101031009D02*
X203536541Y-101126247D01*
X210529819Y-99239411D02*
X210529819Y-99810839D01*
X210529819Y-99525125D02*
X209529819Y-99525125D01*
X209529819Y-99525125D02*
X209672676Y-99620363D01*
X209672676Y-99620363D02*
X209767914Y-99715601D01*
X209767914Y-99715601D02*
X209815533Y-99810839D01*
X209529819Y-94778458D02*
X209529819Y-94159411D01*
X209529819Y-94159411D02*
X209910771Y-94492744D01*
X209910771Y-94492744D02*
X209910771Y-94349887D01*
X209910771Y-94349887D02*
X209958390Y-94254649D01*
X209958390Y-94254649D02*
X210006009Y-94207030D01*
X210006009Y-94207030D02*
X210101247Y-94159411D01*
X210101247Y-94159411D02*
X210339342Y-94159411D01*
X210339342Y-94159411D02*
X210434580Y-94207030D01*
X210434580Y-94207030D02*
X210482200Y-94254649D01*
X210482200Y-94254649D02*
X210529819Y-94349887D01*
X210529819Y-94349887D02*
X210529819Y-94635601D01*
X210529819Y-94635601D02*
X210482200Y-94730839D01*
X210482200Y-94730839D02*
X210434580Y-94778458D01*
X209529819Y-84618458D02*
X209529819Y-83951792D01*
X209529819Y-83951792D02*
X210529819Y-84380363D01*
X209529819Y-89127030D02*
X209529819Y-89603220D01*
X209529819Y-89603220D02*
X210006009Y-89650839D01*
X210006009Y-89650839D02*
X209958390Y-89603220D01*
X209958390Y-89603220D02*
X209910771Y-89507982D01*
X209910771Y-89507982D02*
X209910771Y-89269887D01*
X209910771Y-89269887D02*
X209958390Y-89174649D01*
X209958390Y-89174649D02*
X210006009Y-89127030D01*
X210006009Y-89127030D02*
X210101247Y-89079411D01*
X210101247Y-89079411D02*
X210339342Y-89079411D01*
X210339342Y-89079411D02*
X210434580Y-89127030D01*
X210434580Y-89127030D02*
X210482200Y-89174649D01*
X210482200Y-89174649D02*
X210529819Y-89269887D01*
X210529819Y-89269887D02*
X210529819Y-89507982D01*
X210529819Y-89507982D02*
X210482200Y-89603220D01*
X210482200Y-89603220D02*
X210434580Y-89650839D01*
X183700839Y-70374942D02*
X183653220Y-70422561D01*
X183653220Y-70422561D02*
X183557982Y-70470180D01*
X183557982Y-70470180D02*
X183319887Y-70470180D01*
X183319887Y-70470180D02*
X183224649Y-70422561D01*
X183224649Y-70422561D02*
X183177030Y-70374942D01*
X183177030Y-70374942D02*
X183129411Y-70279704D01*
X183129411Y-70279704D02*
X183129411Y-70184466D01*
X183129411Y-70184466D02*
X183177030Y-70041609D01*
X183177030Y-70041609D02*
X183748458Y-69470180D01*
X183748458Y-69470180D02*
X183129411Y-69470180D01*
X182796077Y-70470180D02*
X182177030Y-70470180D01*
X182177030Y-70470180D02*
X182510363Y-70089228D01*
X182510363Y-70089228D02*
X182367506Y-70089228D01*
X182367506Y-70089228D02*
X182272268Y-70041609D01*
X182272268Y-70041609D02*
X182224649Y-69993990D01*
X182224649Y-69993990D02*
X182177030Y-69898752D01*
X182177030Y-69898752D02*
X182177030Y-69660657D01*
X182177030Y-69660657D02*
X182224649Y-69565419D01*
X182224649Y-69565419D02*
X182272268Y-69517800D01*
X182272268Y-69517800D02*
X182367506Y-69470180D01*
X182367506Y-69470180D02*
X182653220Y-69470180D01*
X182653220Y-69470180D02*
X182748458Y-69517800D01*
X182748458Y-69517800D02*
X182796077Y-69565419D01*
X188780839Y-70374942D02*
X188733220Y-70422561D01*
X188733220Y-70422561D02*
X188637982Y-70470180D01*
X188637982Y-70470180D02*
X188399887Y-70470180D01*
X188399887Y-70470180D02*
X188304649Y-70422561D01*
X188304649Y-70422561D02*
X188257030Y-70374942D01*
X188257030Y-70374942D02*
X188209411Y-70279704D01*
X188209411Y-70279704D02*
X188209411Y-70184466D01*
X188209411Y-70184466D02*
X188257030Y-70041609D01*
X188257030Y-70041609D02*
X188828458Y-69470180D01*
X188828458Y-69470180D02*
X188209411Y-69470180D01*
X187257030Y-69470180D02*
X187828458Y-69470180D01*
X187542744Y-69470180D02*
X187542744Y-70470180D01*
X187542744Y-70470180D02*
X187637982Y-70327323D01*
X187637982Y-70327323D02*
X187733220Y-70232085D01*
X187733220Y-70232085D02*
X187828458Y-70184466D01*
X166889160Y-80507200D02*
X167032017Y-80554819D01*
X167032017Y-80554819D02*
X167270112Y-80554819D01*
X167270112Y-80554819D02*
X167365350Y-80507200D01*
X167365350Y-80507200D02*
X167412969Y-80459580D01*
X167412969Y-80459580D02*
X167460588Y-80364342D01*
X167460588Y-80364342D02*
X167460588Y-80269104D01*
X167460588Y-80269104D02*
X167412969Y-80173866D01*
X167412969Y-80173866D02*
X167365350Y-80126247D01*
X167365350Y-80126247D02*
X167270112Y-80078628D01*
X167270112Y-80078628D02*
X167079636Y-80031009D01*
X167079636Y-80031009D02*
X166984398Y-79983390D01*
X166984398Y-79983390D02*
X166936779Y-79935771D01*
X166936779Y-79935771D02*
X166889160Y-79840533D01*
X166889160Y-79840533D02*
X166889160Y-79745295D01*
X166889160Y-79745295D02*
X166936779Y-79650057D01*
X166936779Y-79650057D02*
X166984398Y-79602438D01*
X166984398Y-79602438D02*
X167079636Y-79554819D01*
X167079636Y-79554819D02*
X167317731Y-79554819D01*
X167317731Y-79554819D02*
X167460588Y-79602438D01*
X167746303Y-79554819D02*
X168317731Y-79554819D01*
X168032017Y-80554819D02*
X168032017Y-79554819D01*
X169127255Y-80554819D02*
X168651065Y-80554819D01*
X168651065Y-80554819D02*
X168651065Y-79554819D01*
X169460589Y-80173866D02*
X170222494Y-80173866D01*
X170603446Y-79554819D02*
X171222493Y-79554819D01*
X171222493Y-79554819D02*
X170889160Y-79935771D01*
X170889160Y-79935771D02*
X171032017Y-79935771D01*
X171032017Y-79935771D02*
X171127255Y-79983390D01*
X171127255Y-79983390D02*
X171174874Y-80031009D01*
X171174874Y-80031009D02*
X171222493Y-80126247D01*
X171222493Y-80126247D02*
X171222493Y-80364342D01*
X171222493Y-80364342D02*
X171174874Y-80459580D01*
X171174874Y-80459580D02*
X171127255Y-80507200D01*
X171127255Y-80507200D02*
X171032017Y-80554819D01*
X171032017Y-80554819D02*
X170746303Y-80554819D01*
X170746303Y-80554819D02*
X170651065Y-80507200D01*
X170651065Y-80507200D02*
X170603446Y-80459580D01*
X171508208Y-79554819D02*
X171841541Y-80554819D01*
X171841541Y-80554819D02*
X172174874Y-79554819D01*
X172412970Y-79554819D02*
X173032017Y-79554819D01*
X173032017Y-79554819D02*
X172698684Y-79935771D01*
X172698684Y-79935771D02*
X172841541Y-79935771D01*
X172841541Y-79935771D02*
X172936779Y-79983390D01*
X172936779Y-79983390D02*
X172984398Y-80031009D01*
X172984398Y-80031009D02*
X173032017Y-80126247D01*
X173032017Y-80126247D02*
X173032017Y-80364342D01*
X173032017Y-80364342D02*
X172984398Y-80459580D01*
X172984398Y-80459580D02*
X172936779Y-80507200D01*
X172936779Y-80507200D02*
X172841541Y-80554819D01*
X172841541Y-80554819D02*
X172555827Y-80554819D01*
X172555827Y-80554819D02*
X172460589Y-80507200D01*
X172460589Y-80507200D02*
X172412970Y-80459580D01*
X200909411Y-69470180D02*
X201480839Y-69470180D01*
X201195125Y-69470180D02*
X201195125Y-70470180D01*
X201195125Y-70470180D02*
X201290363Y-70327323D01*
X201290363Y-70327323D02*
X201385601Y-70232085D01*
X201385601Y-70232085D02*
X201480839Y-70184466D01*
X200052268Y-70470180D02*
X200242744Y-70470180D01*
X200242744Y-70470180D02*
X200337982Y-70422561D01*
X200337982Y-70422561D02*
X200385601Y-70374942D01*
X200385601Y-70374942D02*
X200480839Y-70232085D01*
X200480839Y-70232085D02*
X200528458Y-70041609D01*
X200528458Y-70041609D02*
X200528458Y-69660657D01*
X200528458Y-69660657D02*
X200480839Y-69565419D01*
X200480839Y-69565419D02*
X200433220Y-69517800D01*
X200433220Y-69517800D02*
X200337982Y-69470180D01*
X200337982Y-69470180D02*
X200147506Y-69470180D01*
X200147506Y-69470180D02*
X200052268Y-69517800D01*
X200052268Y-69517800D02*
X200004649Y-69565419D01*
X200004649Y-69565419D02*
X199957030Y-69660657D01*
X199957030Y-69660657D02*
X199957030Y-69898752D01*
X199957030Y-69898752D02*
X200004649Y-69993990D01*
X200004649Y-69993990D02*
X200052268Y-70041609D01*
X200052268Y-70041609D02*
X200147506Y-70089228D01*
X200147506Y-70089228D02*
X200337982Y-70089228D01*
X200337982Y-70089228D02*
X200433220Y-70041609D01*
X200433220Y-70041609D02*
X200480839Y-69993990D01*
X200480839Y-69993990D02*
X200528458Y-69898752D01*
X208529411Y-69470180D02*
X209100839Y-69470180D01*
X208815125Y-69470180D02*
X208815125Y-70470180D01*
X208815125Y-70470180D02*
X208910363Y-70327323D01*
X208910363Y-70327323D02*
X209005601Y-70232085D01*
X209005601Y-70232085D02*
X209100839Y-70184466D01*
X208196077Y-70470180D02*
X207577030Y-70470180D01*
X207577030Y-70470180D02*
X207910363Y-70089228D01*
X207910363Y-70089228D02*
X207767506Y-70089228D01*
X207767506Y-70089228D02*
X207672268Y-70041609D01*
X207672268Y-70041609D02*
X207624649Y-69993990D01*
X207624649Y-69993990D02*
X207577030Y-69898752D01*
X207577030Y-69898752D02*
X207577030Y-69660657D01*
X207577030Y-69660657D02*
X207624649Y-69565419D01*
X207624649Y-69565419D02*
X207672268Y-69517800D01*
X207672268Y-69517800D02*
X207767506Y-69470180D01*
X207767506Y-69470180D02*
X208053220Y-69470180D01*
X208053220Y-69470180D02*
X208148458Y-69517800D01*
X208148458Y-69517800D02*
X208196077Y-69565419D01*
X179520180Y-86041541D02*
X179520180Y-86660588D01*
X179520180Y-86660588D02*
X179139228Y-86327255D01*
X179139228Y-86327255D02*
X179139228Y-86470112D01*
X179139228Y-86470112D02*
X179091609Y-86565350D01*
X179091609Y-86565350D02*
X179043990Y-86612969D01*
X179043990Y-86612969D02*
X178948752Y-86660588D01*
X178948752Y-86660588D02*
X178710657Y-86660588D01*
X178710657Y-86660588D02*
X178615419Y-86612969D01*
X178615419Y-86612969D02*
X178567800Y-86565350D01*
X178567800Y-86565350D02*
X178520180Y-86470112D01*
X178520180Y-86470112D02*
X178520180Y-86184398D01*
X178520180Y-86184398D02*
X178567800Y-86089160D01*
X178567800Y-86089160D02*
X178615419Y-86041541D01*
X178520180Y-87612969D02*
X178520180Y-87041541D01*
X178520180Y-87327255D02*
X179520180Y-87327255D01*
X179520180Y-87327255D02*
X179377323Y-87232017D01*
X179377323Y-87232017D02*
X179282085Y-87136779D01*
X179282085Y-87136779D02*
X179234466Y-87041541D01*
X179424942Y-73389160D02*
X179472561Y-73436779D01*
X179472561Y-73436779D02*
X179520180Y-73532017D01*
X179520180Y-73532017D02*
X179520180Y-73770112D01*
X179520180Y-73770112D02*
X179472561Y-73865350D01*
X179472561Y-73865350D02*
X179424942Y-73912969D01*
X179424942Y-73912969D02*
X179329704Y-73960588D01*
X179329704Y-73960588D02*
X179234466Y-73960588D01*
X179234466Y-73960588D02*
X179091609Y-73912969D01*
X179091609Y-73912969D02*
X178520180Y-73341541D01*
X178520180Y-73341541D02*
X178520180Y-73960588D01*
X179520180Y-74817731D02*
X179520180Y-74627255D01*
X179520180Y-74627255D02*
X179472561Y-74532017D01*
X179472561Y-74532017D02*
X179424942Y-74484398D01*
X179424942Y-74484398D02*
X179282085Y-74389160D01*
X179282085Y-74389160D02*
X179091609Y-74341541D01*
X179091609Y-74341541D02*
X178710657Y-74341541D01*
X178710657Y-74341541D02*
X178615419Y-74389160D01*
X178615419Y-74389160D02*
X178567800Y-74436779D01*
X178567800Y-74436779D02*
X178520180Y-74532017D01*
X178520180Y-74532017D02*
X178520180Y-74722493D01*
X178520180Y-74722493D02*
X178567800Y-74817731D01*
X178567800Y-74817731D02*
X178615419Y-74865350D01*
X178615419Y-74865350D02*
X178710657Y-74912969D01*
X178710657Y-74912969D02*
X178948752Y-74912969D01*
X178948752Y-74912969D02*
X179043990Y-74865350D01*
X179043990Y-74865350D02*
X179091609Y-74817731D01*
X179091609Y-74817731D02*
X179139228Y-74722493D01*
X179139228Y-74722493D02*
X179139228Y-74532017D01*
X179139228Y-74532017D02*
X179091609Y-74436779D01*
X179091609Y-74436779D02*
X179043990Y-74389160D01*
X179043990Y-74389160D02*
X178948752Y-74341541D01*
X179424942Y-78469160D02*
X179472561Y-78516779D01*
X179472561Y-78516779D02*
X179520180Y-78612017D01*
X179520180Y-78612017D02*
X179520180Y-78850112D01*
X179520180Y-78850112D02*
X179472561Y-78945350D01*
X179472561Y-78945350D02*
X179424942Y-78992969D01*
X179424942Y-78992969D02*
X179329704Y-79040588D01*
X179329704Y-79040588D02*
X179234466Y-79040588D01*
X179234466Y-79040588D02*
X179091609Y-78992969D01*
X179091609Y-78992969D02*
X178520180Y-78421541D01*
X178520180Y-78421541D02*
X178520180Y-79040588D01*
X179091609Y-79612017D02*
X179139228Y-79516779D01*
X179139228Y-79516779D02*
X179186847Y-79469160D01*
X179186847Y-79469160D02*
X179282085Y-79421541D01*
X179282085Y-79421541D02*
X179329704Y-79421541D01*
X179329704Y-79421541D02*
X179424942Y-79469160D01*
X179424942Y-79469160D02*
X179472561Y-79516779D01*
X179472561Y-79516779D02*
X179520180Y-79612017D01*
X179520180Y-79612017D02*
X179520180Y-79802493D01*
X179520180Y-79802493D02*
X179472561Y-79897731D01*
X179472561Y-79897731D02*
X179424942Y-79945350D01*
X179424942Y-79945350D02*
X179329704Y-79992969D01*
X179329704Y-79992969D02*
X179282085Y-79992969D01*
X179282085Y-79992969D02*
X179186847Y-79945350D01*
X179186847Y-79945350D02*
X179139228Y-79897731D01*
X179139228Y-79897731D02*
X179091609Y-79802493D01*
X179091609Y-79802493D02*
X179091609Y-79612017D01*
X179091609Y-79612017D02*
X179043990Y-79516779D01*
X179043990Y-79516779D02*
X178996371Y-79469160D01*
X178996371Y-79469160D02*
X178901133Y-79421541D01*
X178901133Y-79421541D02*
X178710657Y-79421541D01*
X178710657Y-79421541D02*
X178615419Y-79469160D01*
X178615419Y-79469160D02*
X178567800Y-79516779D01*
X178567800Y-79516779D02*
X178520180Y-79612017D01*
X178520180Y-79612017D02*
X178520180Y-79802493D01*
X178520180Y-79802493D02*
X178567800Y-79897731D01*
X178567800Y-79897731D02*
X178615419Y-79945350D01*
X178615419Y-79945350D02*
X178710657Y-79992969D01*
X178710657Y-79992969D02*
X178901133Y-79992969D01*
X178901133Y-79992969D02*
X178996371Y-79945350D01*
X178996371Y-79945350D02*
X179043990Y-79897731D01*
X179043990Y-79897731D02*
X179091609Y-79802493D01*
X196351009Y-97879887D02*
X196398628Y-97737030D01*
X196398628Y-97737030D02*
X196446247Y-97689411D01*
X196446247Y-97689411D02*
X196541485Y-97641792D01*
X196541485Y-97641792D02*
X196684342Y-97641792D01*
X196684342Y-97641792D02*
X196779580Y-97689411D01*
X196779580Y-97689411D02*
X196827200Y-97737030D01*
X196827200Y-97737030D02*
X196874819Y-97832268D01*
X196874819Y-97832268D02*
X196874819Y-98213220D01*
X196874819Y-98213220D02*
X195874819Y-98213220D01*
X195874819Y-98213220D02*
X195874819Y-97879887D01*
X195874819Y-97879887D02*
X195922438Y-97784649D01*
X195922438Y-97784649D02*
X195970057Y-97737030D01*
X195970057Y-97737030D02*
X196065295Y-97689411D01*
X196065295Y-97689411D02*
X196160533Y-97689411D01*
X196160533Y-97689411D02*
X196255771Y-97737030D01*
X196255771Y-97737030D02*
X196303390Y-97784649D01*
X196303390Y-97784649D02*
X196351009Y-97879887D01*
X196351009Y-97879887D02*
X196351009Y-98213220D01*
X196874819Y-97070363D02*
X196827200Y-97165601D01*
X196827200Y-97165601D02*
X196779580Y-97213220D01*
X196779580Y-97213220D02*
X196684342Y-97260839D01*
X196684342Y-97260839D02*
X196398628Y-97260839D01*
X196398628Y-97260839D02*
X196303390Y-97213220D01*
X196303390Y-97213220D02*
X196255771Y-97165601D01*
X196255771Y-97165601D02*
X196208152Y-97070363D01*
X196208152Y-97070363D02*
X196208152Y-96927506D01*
X196208152Y-96927506D02*
X196255771Y-96832268D01*
X196255771Y-96832268D02*
X196303390Y-96784649D01*
X196303390Y-96784649D02*
X196398628Y-96737030D01*
X196398628Y-96737030D02*
X196684342Y-96737030D01*
X196684342Y-96737030D02*
X196779580Y-96784649D01*
X196779580Y-96784649D02*
X196827200Y-96832268D01*
X196827200Y-96832268D02*
X196874819Y-96927506D01*
X196874819Y-96927506D02*
X196874819Y-97070363D01*
X196874819Y-96165601D02*
X196827200Y-96260839D01*
X196827200Y-96260839D02*
X196779580Y-96308458D01*
X196779580Y-96308458D02*
X196684342Y-96356077D01*
X196684342Y-96356077D02*
X196398628Y-96356077D01*
X196398628Y-96356077D02*
X196303390Y-96308458D01*
X196303390Y-96308458D02*
X196255771Y-96260839D01*
X196255771Y-96260839D02*
X196208152Y-96165601D01*
X196208152Y-96165601D02*
X196208152Y-96022744D01*
X196208152Y-96022744D02*
X196255771Y-95927506D01*
X196255771Y-95927506D02*
X196303390Y-95879887D01*
X196303390Y-95879887D02*
X196398628Y-95832268D01*
X196398628Y-95832268D02*
X196684342Y-95832268D01*
X196684342Y-95832268D02*
X196779580Y-95879887D01*
X196779580Y-95879887D02*
X196827200Y-95927506D01*
X196827200Y-95927506D02*
X196874819Y-96022744D01*
X196874819Y-96022744D02*
X196874819Y-96165601D01*
X196208152Y-95546553D02*
X196208152Y-95165601D01*
X195874819Y-95403696D02*
X196731961Y-95403696D01*
X196731961Y-95403696D02*
X196827200Y-95356077D01*
X196827200Y-95356077D02*
X196874819Y-95260839D01*
X196874819Y-95260839D02*
X196874819Y-95165601D01*
X195874819Y-94641791D02*
X195874819Y-94546553D01*
X195874819Y-94546553D02*
X195922438Y-94451315D01*
X195922438Y-94451315D02*
X195970057Y-94403696D01*
X195970057Y-94403696D02*
X196065295Y-94356077D01*
X196065295Y-94356077D02*
X196255771Y-94308458D01*
X196255771Y-94308458D02*
X196493866Y-94308458D01*
X196493866Y-94308458D02*
X196684342Y-94356077D01*
X196684342Y-94356077D02*
X196779580Y-94403696D01*
X196779580Y-94403696D02*
X196827200Y-94451315D01*
X196827200Y-94451315D02*
X196874819Y-94546553D01*
X196874819Y-94546553D02*
X196874819Y-94641791D01*
X196874819Y-94641791D02*
X196827200Y-94737029D01*
X196827200Y-94737029D02*
X196779580Y-94784648D01*
X196779580Y-94784648D02*
X196684342Y-94832267D01*
X196684342Y-94832267D02*
X196493866Y-94879886D01*
X196493866Y-94879886D02*
X196255771Y-94879886D01*
X196255771Y-94879886D02*
X196065295Y-94832267D01*
X196065295Y-94832267D02*
X195970057Y-94784648D01*
X195970057Y-94784648D02*
X195922438Y-94737029D01*
X195922438Y-94737029D02*
X195874819Y-94641791D01*
X193289411Y-69470180D02*
X193860839Y-69470180D01*
X193575125Y-69470180D02*
X193575125Y-70470180D01*
X193575125Y-70470180D02*
X193670363Y-70327323D01*
X193670363Y-70327323D02*
X193765601Y-70232085D01*
X193765601Y-70232085D02*
X193860839Y-70184466D01*
X192813220Y-69470180D02*
X192622744Y-69470180D01*
X192622744Y-69470180D02*
X192527506Y-69517800D01*
X192527506Y-69517800D02*
X192479887Y-69565419D01*
X192479887Y-69565419D02*
X192384649Y-69708276D01*
X192384649Y-69708276D02*
X192337030Y-69898752D01*
X192337030Y-69898752D02*
X192337030Y-70279704D01*
X192337030Y-70279704D02*
X192384649Y-70374942D01*
X192384649Y-70374942D02*
X192432268Y-70422561D01*
X192432268Y-70422561D02*
X192527506Y-70470180D01*
X192527506Y-70470180D02*
X192717982Y-70470180D01*
X192717982Y-70470180D02*
X192813220Y-70422561D01*
X192813220Y-70422561D02*
X192860839Y-70374942D01*
X192860839Y-70374942D02*
X192908458Y-70279704D01*
X192908458Y-70279704D02*
X192908458Y-70041609D01*
X192908458Y-70041609D02*
X192860839Y-69946371D01*
X192860839Y-69946371D02*
X192813220Y-69898752D01*
X192813220Y-69898752D02*
X192717982Y-69851133D01*
X192717982Y-69851133D02*
X192527506Y-69851133D01*
X192527506Y-69851133D02*
X192432268Y-69898752D01*
X192432268Y-69898752D02*
X192384649Y-69946371D01*
X192384649Y-69946371D02*
X192337030Y-70041609D01*
X205989411Y-69470180D02*
X206560839Y-69470180D01*
X206275125Y-69470180D02*
X206275125Y-70470180D01*
X206275125Y-70470180D02*
X206370363Y-70327323D01*
X206370363Y-70327323D02*
X206465601Y-70232085D01*
X206465601Y-70232085D02*
X206560839Y-70184466D01*
X205132268Y-70136847D02*
X205132268Y-69470180D01*
X205370363Y-70517800D02*
X205608458Y-69803514D01*
X205608458Y-69803514D02*
X204989411Y-69803514D01*
X179520180Y-93661541D02*
X179520180Y-94280588D01*
X179520180Y-94280588D02*
X179139228Y-93947255D01*
X179139228Y-93947255D02*
X179139228Y-94090112D01*
X179139228Y-94090112D02*
X179091609Y-94185350D01*
X179091609Y-94185350D02*
X179043990Y-94232969D01*
X179043990Y-94232969D02*
X178948752Y-94280588D01*
X178948752Y-94280588D02*
X178710657Y-94280588D01*
X178710657Y-94280588D02*
X178615419Y-94232969D01*
X178615419Y-94232969D02*
X178567800Y-94185350D01*
X178567800Y-94185350D02*
X178520180Y-94090112D01*
X178520180Y-94090112D02*
X178520180Y-93804398D01*
X178520180Y-93804398D02*
X178567800Y-93709160D01*
X178567800Y-93709160D02*
X178615419Y-93661541D01*
X179186847Y-95137731D02*
X178520180Y-95137731D01*
X179567800Y-94899636D02*
X178853514Y-94661541D01*
X178853514Y-94661541D02*
X178853514Y-95280588D01*
D10*
X169761027Y-103077300D02*
X169832455Y-103101109D01*
X169832455Y-103101109D02*
X169951503Y-103101109D01*
X169951503Y-103101109D02*
X169999122Y-103077300D01*
X169999122Y-103077300D02*
X170022931Y-103053490D01*
X170022931Y-103053490D02*
X170046741Y-103005871D01*
X170046741Y-103005871D02*
X170046741Y-102958252D01*
X170046741Y-102958252D02*
X170022931Y-102910633D01*
X170022931Y-102910633D02*
X169999122Y-102886823D01*
X169999122Y-102886823D02*
X169951503Y-102863014D01*
X169951503Y-102863014D02*
X169856265Y-102839204D01*
X169856265Y-102839204D02*
X169808646Y-102815395D01*
X169808646Y-102815395D02*
X169784836Y-102791585D01*
X169784836Y-102791585D02*
X169761027Y-102743966D01*
X169761027Y-102743966D02*
X169761027Y-102696347D01*
X169761027Y-102696347D02*
X169784836Y-102648728D01*
X169784836Y-102648728D02*
X169808646Y-102624919D01*
X169808646Y-102624919D02*
X169856265Y-102601109D01*
X169856265Y-102601109D02*
X169975312Y-102601109D01*
X169975312Y-102601109D02*
X170046741Y-102624919D01*
X170189598Y-102601109D02*
X170475312Y-102601109D01*
X170332455Y-103101109D02*
X170332455Y-102601109D01*
X170880073Y-103101109D02*
X170641978Y-103101109D01*
X170641978Y-103101109D02*
X170641978Y-102601109D01*
D11*
X209625057Y-97270839D02*
X209577438Y-97223220D01*
X209577438Y-97223220D02*
X209529819Y-97127982D01*
X209529819Y-97127982D02*
X209529819Y-96889887D01*
X209529819Y-96889887D02*
X209577438Y-96794649D01*
X209577438Y-96794649D02*
X209625057Y-96747030D01*
X209625057Y-96747030D02*
X209720295Y-96699411D01*
X209720295Y-96699411D02*
X209815533Y-96699411D01*
X209815533Y-96699411D02*
X209958390Y-96747030D01*
X209958390Y-96747030D02*
X210529819Y-97318458D01*
X210529819Y-97318458D02*
X210529819Y-96699411D01*
X186984819Y-74971792D02*
X186508628Y-75305125D01*
X186984819Y-75543220D02*
X185984819Y-75543220D01*
X185984819Y-75543220D02*
X185984819Y-75162268D01*
X185984819Y-75162268D02*
X186032438Y-75067030D01*
X186032438Y-75067030D02*
X186080057Y-75019411D01*
X186080057Y-75019411D02*
X186175295Y-74971792D01*
X186175295Y-74971792D02*
X186318152Y-74971792D01*
X186318152Y-74971792D02*
X186413390Y-75019411D01*
X186413390Y-75019411D02*
X186461009Y-75067030D01*
X186461009Y-75067030D02*
X186508628Y-75162268D01*
X186508628Y-75162268D02*
X186508628Y-75543220D01*
X186937200Y-74162268D02*
X186984819Y-74257506D01*
X186984819Y-74257506D02*
X186984819Y-74447982D01*
X186984819Y-74447982D02*
X186937200Y-74543220D01*
X186937200Y-74543220D02*
X186841961Y-74590839D01*
X186841961Y-74590839D02*
X186461009Y-74590839D01*
X186461009Y-74590839D02*
X186365771Y-74543220D01*
X186365771Y-74543220D02*
X186318152Y-74447982D01*
X186318152Y-74447982D02*
X186318152Y-74257506D01*
X186318152Y-74257506D02*
X186365771Y-74162268D01*
X186365771Y-74162268D02*
X186461009Y-74114649D01*
X186461009Y-74114649D02*
X186556247Y-74114649D01*
X186556247Y-74114649D02*
X186651485Y-74590839D01*
X186937200Y-73733696D02*
X186984819Y-73638458D01*
X186984819Y-73638458D02*
X186984819Y-73447982D01*
X186984819Y-73447982D02*
X186937200Y-73352744D01*
X186937200Y-73352744D02*
X186841961Y-73305125D01*
X186841961Y-73305125D02*
X186794342Y-73305125D01*
X186794342Y-73305125D02*
X186699104Y-73352744D01*
X186699104Y-73352744D02*
X186651485Y-73447982D01*
X186651485Y-73447982D02*
X186651485Y-73590839D01*
X186651485Y-73590839D02*
X186603866Y-73686077D01*
X186603866Y-73686077D02*
X186508628Y-73733696D01*
X186508628Y-73733696D02*
X186461009Y-73733696D01*
X186461009Y-73733696D02*
X186365771Y-73686077D01*
X186365771Y-73686077D02*
X186318152Y-73590839D01*
X186318152Y-73590839D02*
X186318152Y-73447982D01*
X186318152Y-73447982D02*
X186365771Y-73352744D01*
X186937200Y-72495601D02*
X186984819Y-72590839D01*
X186984819Y-72590839D02*
X186984819Y-72781315D01*
X186984819Y-72781315D02*
X186937200Y-72876553D01*
X186937200Y-72876553D02*
X186841961Y-72924172D01*
X186841961Y-72924172D02*
X186461009Y-72924172D01*
X186461009Y-72924172D02*
X186365771Y-72876553D01*
X186365771Y-72876553D02*
X186318152Y-72781315D01*
X186318152Y-72781315D02*
X186318152Y-72590839D01*
X186318152Y-72590839D02*
X186365771Y-72495601D01*
X186365771Y-72495601D02*
X186461009Y-72447982D01*
X186461009Y-72447982D02*
X186556247Y-72447982D01*
X186556247Y-72447982D02*
X186651485Y-72924172D01*
X186318152Y-72162267D02*
X186318152Y-71781315D01*
X185984819Y-72019410D02*
X186841961Y-72019410D01*
X186841961Y-72019410D02*
X186937200Y-71971791D01*
X186937200Y-71971791D02*
X186984819Y-71876553D01*
X186984819Y-71876553D02*
X186984819Y-71781315D01*
X200520350Y-100888152D02*
X200520350Y-101554819D01*
X200282255Y-100507200D02*
X200044160Y-101221485D01*
X200044160Y-101221485D02*
X200663207Y-101221485D01*
X201520350Y-100554819D02*
X201044160Y-100554819D01*
X201044160Y-100554819D02*
X200996541Y-101031009D01*
X200996541Y-101031009D02*
X201044160Y-100983390D01*
X201044160Y-100983390D02*
X201139398Y-100935771D01*
X201139398Y-100935771D02*
X201377493Y-100935771D01*
X201377493Y-100935771D02*
X201472731Y-100983390D01*
X201472731Y-100983390D02*
X201520350Y-101031009D01*
X201520350Y-101031009D02*
X201567969Y-101126247D01*
X201567969Y-101126247D02*
X201567969Y-101364342D01*
X201567969Y-101364342D02*
X201520350Y-101459580D01*
X201520350Y-101459580D02*
X201472731Y-101507200D01*
X201472731Y-101507200D02*
X201377493Y-101554819D01*
X201377493Y-101554819D02*
X201139398Y-101554819D01*
X201139398Y-101554819D02*
X201044160Y-101507200D01*
X201044160Y-101507200D02*
X200996541Y-101459580D01*
X210529819Y-71299411D02*
X210529819Y-71870839D01*
X210529819Y-71585125D02*
X209529819Y-71585125D01*
X209529819Y-71585125D02*
X209672676Y-71680363D01*
X209672676Y-71680363D02*
X209767914Y-71775601D01*
X209767914Y-71775601D02*
X209815533Y-71870839D01*
X209625057Y-70918458D02*
X209577438Y-70870839D01*
X209577438Y-70870839D02*
X209529819Y-70775601D01*
X209529819Y-70775601D02*
X209529819Y-70537506D01*
X209529819Y-70537506D02*
X209577438Y-70442268D01*
X209577438Y-70442268D02*
X209625057Y-70394649D01*
X209625057Y-70394649D02*
X209720295Y-70347030D01*
X209720295Y-70347030D02*
X209815533Y-70347030D01*
X209815533Y-70347030D02*
X209958390Y-70394649D01*
X209958390Y-70394649D02*
X210529819Y-70966077D01*
X210529819Y-70966077D02*
X210529819Y-70347030D01*
D10*
X165699919Y-102078258D02*
X165676109Y-102125877D01*
X165676109Y-102125877D02*
X165676109Y-102197306D01*
X165676109Y-102197306D02*
X165699919Y-102268734D01*
X165699919Y-102268734D02*
X165747538Y-102316353D01*
X165747538Y-102316353D02*
X165795157Y-102340163D01*
X165795157Y-102340163D02*
X165890395Y-102363972D01*
X165890395Y-102363972D02*
X165961823Y-102363972D01*
X165961823Y-102363972D02*
X166057061Y-102340163D01*
X166057061Y-102340163D02*
X166104680Y-102316353D01*
X166104680Y-102316353D02*
X166152300Y-102268734D01*
X166152300Y-102268734D02*
X166176109Y-102197306D01*
X166176109Y-102197306D02*
X166176109Y-102149687D01*
X166176109Y-102149687D02*
X166152300Y-102078258D01*
X166152300Y-102078258D02*
X166128490Y-102054449D01*
X166128490Y-102054449D02*
X165961823Y-102054449D01*
X165961823Y-102054449D02*
X165961823Y-102149687D01*
X166176109Y-101840163D02*
X165676109Y-101840163D01*
X165676109Y-101840163D02*
X166176109Y-101554449D01*
X166176109Y-101554449D02*
X165676109Y-101554449D01*
X166176109Y-101316353D02*
X165676109Y-101316353D01*
X165676109Y-101316353D02*
X165676109Y-101197305D01*
X165676109Y-101197305D02*
X165699919Y-101125877D01*
X165699919Y-101125877D02*
X165747538Y-101078258D01*
X165747538Y-101078258D02*
X165795157Y-101054448D01*
X165795157Y-101054448D02*
X165890395Y-101030639D01*
X165890395Y-101030639D02*
X165961823Y-101030639D01*
X165961823Y-101030639D02*
X166057061Y-101054448D01*
X166057061Y-101054448D02*
X166104680Y-101078258D01*
X166104680Y-101078258D02*
X166152300Y-101125877D01*
X166152300Y-101125877D02*
X166176109Y-101197305D01*
X166176109Y-101197305D02*
X166176109Y-101316353D01*
D11*
X210529819Y-79395601D02*
X210529819Y-79205125D01*
X210529819Y-79205125D02*
X210482200Y-79109887D01*
X210482200Y-79109887D02*
X210434580Y-79062268D01*
X210434580Y-79062268D02*
X210291723Y-78967030D01*
X210291723Y-78967030D02*
X210101247Y-78919411D01*
X210101247Y-78919411D02*
X209720295Y-78919411D01*
X209720295Y-78919411D02*
X209625057Y-78967030D01*
X209625057Y-78967030D02*
X209577438Y-79014649D01*
X209577438Y-79014649D02*
X209529819Y-79109887D01*
X209529819Y-79109887D02*
X209529819Y-79300363D01*
X209529819Y-79300363D02*
X209577438Y-79395601D01*
X209577438Y-79395601D02*
X209625057Y-79443220D01*
X209625057Y-79443220D02*
X209720295Y-79490839D01*
X209720295Y-79490839D02*
X209958390Y-79490839D01*
X209958390Y-79490839D02*
X210053628Y-79443220D01*
X210053628Y-79443220D02*
X210101247Y-79395601D01*
X210101247Y-79395601D02*
X210148866Y-79300363D01*
X210148866Y-79300363D02*
X210148866Y-79109887D01*
X210148866Y-79109887D02*
X210101247Y-79014649D01*
X210101247Y-79014649D02*
X210053628Y-78967030D01*
X210053628Y-78967030D02*
X209958390Y-78919411D01*
X179520180Y-91121541D02*
X179520180Y-91740588D01*
X179520180Y-91740588D02*
X179139228Y-91407255D01*
X179139228Y-91407255D02*
X179139228Y-91550112D01*
X179139228Y-91550112D02*
X179091609Y-91645350D01*
X179091609Y-91645350D02*
X179043990Y-91692969D01*
X179043990Y-91692969D02*
X178948752Y-91740588D01*
X178948752Y-91740588D02*
X178710657Y-91740588D01*
X178710657Y-91740588D02*
X178615419Y-91692969D01*
X178615419Y-91692969D02*
X178567800Y-91645350D01*
X178567800Y-91645350D02*
X178520180Y-91550112D01*
X178520180Y-91550112D02*
X178520180Y-91264398D01*
X178520180Y-91264398D02*
X178567800Y-91169160D01*
X178567800Y-91169160D02*
X178615419Y-91121541D01*
X179520180Y-92073922D02*
X179520180Y-92692969D01*
X179520180Y-92692969D02*
X179139228Y-92359636D01*
X179139228Y-92359636D02*
X179139228Y-92502493D01*
X179139228Y-92502493D02*
X179091609Y-92597731D01*
X179091609Y-92597731D02*
X179043990Y-92645350D01*
X179043990Y-92645350D02*
X178948752Y-92692969D01*
X178948752Y-92692969D02*
X178710657Y-92692969D01*
X178710657Y-92692969D02*
X178615419Y-92645350D01*
X178615419Y-92645350D02*
X178567800Y-92597731D01*
X178567800Y-92597731D02*
X178520180Y-92502493D01*
X178520180Y-92502493D02*
X178520180Y-92216779D01*
X178520180Y-92216779D02*
X178567800Y-92121541D01*
X178567800Y-92121541D02*
X178615419Y-92073922D01*
X155333207Y-80829819D02*
X154999874Y-80353628D01*
X154761779Y-80829819D02*
X154761779Y-79829819D01*
X154761779Y-79829819D02*
X155142731Y-79829819D01*
X155142731Y-79829819D02*
X155237969Y-79877438D01*
X155237969Y-79877438D02*
X155285588Y-79925057D01*
X155285588Y-79925057D02*
X155333207Y-80020295D01*
X155333207Y-80020295D02*
X155333207Y-80163152D01*
X155333207Y-80163152D02*
X155285588Y-80258390D01*
X155285588Y-80258390D02*
X155237969Y-80306009D01*
X155237969Y-80306009D02*
X155142731Y-80353628D01*
X155142731Y-80353628D02*
X154761779Y-80353628D01*
X155761779Y-80306009D02*
X156095112Y-80306009D01*
X156237969Y-80829819D02*
X155761779Y-80829819D01*
X155761779Y-80829819D02*
X155761779Y-79829819D01*
X155761779Y-79829819D02*
X156237969Y-79829819D01*
X157190350Y-79877438D02*
X157095112Y-79829819D01*
X157095112Y-79829819D02*
X156952255Y-79829819D01*
X156952255Y-79829819D02*
X156809398Y-79877438D01*
X156809398Y-79877438D02*
X156714160Y-79972676D01*
X156714160Y-79972676D02*
X156666541Y-80067914D01*
X156666541Y-80067914D02*
X156618922Y-80258390D01*
X156618922Y-80258390D02*
X156618922Y-80401247D01*
X156618922Y-80401247D02*
X156666541Y-80591723D01*
X156666541Y-80591723D02*
X156714160Y-80686961D01*
X156714160Y-80686961D02*
X156809398Y-80782200D01*
X156809398Y-80782200D02*
X156952255Y-80829819D01*
X156952255Y-80829819D02*
X157047493Y-80829819D01*
X157047493Y-80829819D02*
X157190350Y-80782200D01*
X157190350Y-80782200D02*
X157237969Y-80734580D01*
X157237969Y-80734580D02*
X157237969Y-80401247D01*
X157237969Y-80401247D02*
X157047493Y-80401247D01*
X157666541Y-80448866D02*
X158428446Y-80448866D01*
X158809398Y-79829819D02*
X159428445Y-79829819D01*
X159428445Y-79829819D02*
X159095112Y-80210771D01*
X159095112Y-80210771D02*
X159237969Y-80210771D01*
X159237969Y-80210771D02*
X159333207Y-80258390D01*
X159333207Y-80258390D02*
X159380826Y-80306009D01*
X159380826Y-80306009D02*
X159428445Y-80401247D01*
X159428445Y-80401247D02*
X159428445Y-80639342D01*
X159428445Y-80639342D02*
X159380826Y-80734580D01*
X159380826Y-80734580D02*
X159333207Y-80782200D01*
X159333207Y-80782200D02*
X159237969Y-80829819D01*
X159237969Y-80829819D02*
X158952255Y-80829819D01*
X158952255Y-80829819D02*
X158857017Y-80782200D01*
X158857017Y-80782200D02*
X158809398Y-80734580D01*
X159714160Y-79829819D02*
X160047493Y-80829819D01*
X160047493Y-80829819D02*
X160380826Y-79829819D01*
X160618922Y-79829819D02*
X161237969Y-79829819D01*
X161237969Y-79829819D02*
X160904636Y-80210771D01*
X160904636Y-80210771D02*
X161047493Y-80210771D01*
X161047493Y-80210771D02*
X161142731Y-80258390D01*
X161142731Y-80258390D02*
X161190350Y-80306009D01*
X161190350Y-80306009D02*
X161237969Y-80401247D01*
X161237969Y-80401247D02*
X161237969Y-80639342D01*
X161237969Y-80639342D02*
X161190350Y-80734580D01*
X161190350Y-80734580D02*
X161142731Y-80782200D01*
X161142731Y-80782200D02*
X161047493Y-80829819D01*
X161047493Y-80829819D02*
X160761779Y-80829819D01*
X160761779Y-80829819D02*
X160666541Y-80782200D01*
X160666541Y-80782200D02*
X160618922Y-80734580D01*
X179520180Y-88581541D02*
X179520180Y-89200588D01*
X179520180Y-89200588D02*
X179139228Y-88867255D01*
X179139228Y-88867255D02*
X179139228Y-89010112D01*
X179139228Y-89010112D02*
X179091609Y-89105350D01*
X179091609Y-89105350D02*
X179043990Y-89152969D01*
X179043990Y-89152969D02*
X178948752Y-89200588D01*
X178948752Y-89200588D02*
X178710657Y-89200588D01*
X178710657Y-89200588D02*
X178615419Y-89152969D01*
X178615419Y-89152969D02*
X178567800Y-89105350D01*
X178567800Y-89105350D02*
X178520180Y-89010112D01*
X178520180Y-89010112D02*
X178520180Y-88724398D01*
X178520180Y-88724398D02*
X178567800Y-88629160D01*
X178567800Y-88629160D02*
X178615419Y-88581541D01*
X179424942Y-89581541D02*
X179472561Y-89629160D01*
X179472561Y-89629160D02*
X179520180Y-89724398D01*
X179520180Y-89724398D02*
X179520180Y-89962493D01*
X179520180Y-89962493D02*
X179472561Y-90057731D01*
X179472561Y-90057731D02*
X179424942Y-90105350D01*
X179424942Y-90105350D02*
X179329704Y-90152969D01*
X179329704Y-90152969D02*
X179234466Y-90152969D01*
X179234466Y-90152969D02*
X179091609Y-90105350D01*
X179091609Y-90105350D02*
X178520180Y-89533922D01*
X178520180Y-89533922D02*
X178520180Y-90152969D01*
X209863152Y-91714649D02*
X210529819Y-91714649D01*
X209482200Y-91952744D02*
X210196485Y-92190839D01*
X210196485Y-92190839D02*
X210196485Y-91571792D01*
X197980350Y-100888152D02*
X197980350Y-101554819D01*
X197742255Y-100507200D02*
X197504160Y-101221485D01*
X197504160Y-101221485D02*
X198123207Y-101221485D01*
X198932731Y-100888152D02*
X198932731Y-101554819D01*
X198694636Y-100507200D02*
X198456541Y-101221485D01*
X198456541Y-101221485D02*
X199075588Y-101221485D01*
X179424942Y-75929160D02*
X179472561Y-75976779D01*
X179472561Y-75976779D02*
X179520180Y-76072017D01*
X179520180Y-76072017D02*
X179520180Y-76310112D01*
X179520180Y-76310112D02*
X179472561Y-76405350D01*
X179472561Y-76405350D02*
X179424942Y-76452969D01*
X179424942Y-76452969D02*
X179329704Y-76500588D01*
X179329704Y-76500588D02*
X179234466Y-76500588D01*
X179234466Y-76500588D02*
X179091609Y-76452969D01*
X179091609Y-76452969D02*
X178520180Y-75881541D01*
X178520180Y-75881541D02*
X178520180Y-76500588D01*
X179520180Y-76833922D02*
X179520180Y-77500588D01*
X179520180Y-77500588D02*
X178520180Y-77072017D01*
X208140350Y-100888152D02*
X208140350Y-101554819D01*
X207902255Y-100507200D02*
X207664160Y-101221485D01*
X207664160Y-101221485D02*
X208283207Y-101221485D01*
X208807017Y-100983390D02*
X208711779Y-100935771D01*
X208711779Y-100935771D02*
X208664160Y-100888152D01*
X208664160Y-100888152D02*
X208616541Y-100792914D01*
X208616541Y-100792914D02*
X208616541Y-100745295D01*
X208616541Y-100745295D02*
X208664160Y-100650057D01*
X208664160Y-100650057D02*
X208711779Y-100602438D01*
X208711779Y-100602438D02*
X208807017Y-100554819D01*
X208807017Y-100554819D02*
X208997493Y-100554819D01*
X208997493Y-100554819D02*
X209092731Y-100602438D01*
X209092731Y-100602438D02*
X209140350Y-100650057D01*
X209140350Y-100650057D02*
X209187969Y-100745295D01*
X209187969Y-100745295D02*
X209187969Y-100792914D01*
X209187969Y-100792914D02*
X209140350Y-100888152D01*
X209140350Y-100888152D02*
X209092731Y-100935771D01*
X209092731Y-100935771D02*
X208997493Y-100983390D01*
X208997493Y-100983390D02*
X208807017Y-100983390D01*
X208807017Y-100983390D02*
X208711779Y-101031009D01*
X208711779Y-101031009D02*
X208664160Y-101078628D01*
X208664160Y-101078628D02*
X208616541Y-101173866D01*
X208616541Y-101173866D02*
X208616541Y-101364342D01*
X208616541Y-101364342D02*
X208664160Y-101459580D01*
X208664160Y-101459580D02*
X208711779Y-101507200D01*
X208711779Y-101507200D02*
X208807017Y-101554819D01*
X208807017Y-101554819D02*
X208997493Y-101554819D01*
X208997493Y-101554819D02*
X209092731Y-101507200D01*
X209092731Y-101507200D02*
X209140350Y-101459580D01*
X209140350Y-101459580D02*
X209187969Y-101364342D01*
X209187969Y-101364342D02*
X209187969Y-101173866D01*
X209187969Y-101173866D02*
X209140350Y-101078628D01*
X209140350Y-101078628D02*
X209092731Y-101031009D01*
X209092731Y-101031009D02*
X208997493Y-100983390D01*
X198369411Y-69470180D02*
X198940839Y-69470180D01*
X198655125Y-69470180D02*
X198655125Y-70470180D01*
X198655125Y-70470180D02*
X198750363Y-70327323D01*
X198750363Y-70327323D02*
X198845601Y-70232085D01*
X198845601Y-70232085D02*
X198940839Y-70184466D01*
X198036077Y-70470180D02*
X197369411Y-70470180D01*
X197369411Y-70470180D02*
X197797982Y-69470180D01*
X187820350Y-100888152D02*
X187820350Y-101554819D01*
X187582255Y-100507200D02*
X187344160Y-101221485D01*
X187344160Y-101221485D02*
X187963207Y-101221485D01*
X188534636Y-100554819D02*
X188629874Y-100554819D01*
X188629874Y-100554819D02*
X188725112Y-100602438D01*
X188725112Y-100602438D02*
X188772731Y-100650057D01*
X188772731Y-100650057D02*
X188820350Y-100745295D01*
X188820350Y-100745295D02*
X188867969Y-100935771D01*
X188867969Y-100935771D02*
X188867969Y-101173866D01*
X188867969Y-101173866D02*
X188820350Y-101364342D01*
X188820350Y-101364342D02*
X188772731Y-101459580D01*
X188772731Y-101459580D02*
X188725112Y-101507200D01*
X188725112Y-101507200D02*
X188629874Y-101554819D01*
X188629874Y-101554819D02*
X188534636Y-101554819D01*
X188534636Y-101554819D02*
X188439398Y-101507200D01*
X188439398Y-101507200D02*
X188391779Y-101459580D01*
X188391779Y-101459580D02*
X188344160Y-101364342D01*
X188344160Y-101364342D02*
X188296541Y-101173866D01*
X188296541Y-101173866D02*
X188296541Y-100935771D01*
X188296541Y-100935771D02*
X188344160Y-100745295D01*
X188344160Y-100745295D02*
X188391779Y-100650057D01*
X188391779Y-100650057D02*
X188439398Y-100602438D01*
X188439398Y-100602438D02*
X188534636Y-100554819D01*
X179424942Y-81009160D02*
X179472561Y-81056779D01*
X179472561Y-81056779D02*
X179520180Y-81152017D01*
X179520180Y-81152017D02*
X179520180Y-81390112D01*
X179520180Y-81390112D02*
X179472561Y-81485350D01*
X179472561Y-81485350D02*
X179424942Y-81532969D01*
X179424942Y-81532969D02*
X179329704Y-81580588D01*
X179329704Y-81580588D02*
X179234466Y-81580588D01*
X179234466Y-81580588D02*
X179091609Y-81532969D01*
X179091609Y-81532969D02*
X178520180Y-80961541D01*
X178520180Y-80961541D02*
X178520180Y-81580588D01*
X178520180Y-82056779D02*
X178520180Y-82247255D01*
X178520180Y-82247255D02*
X178567800Y-82342493D01*
X178567800Y-82342493D02*
X178615419Y-82390112D01*
X178615419Y-82390112D02*
X178758276Y-82485350D01*
X178758276Y-82485350D02*
X178948752Y-82532969D01*
X178948752Y-82532969D02*
X179329704Y-82532969D01*
X179329704Y-82532969D02*
X179424942Y-82485350D01*
X179424942Y-82485350D02*
X179472561Y-82437731D01*
X179472561Y-82437731D02*
X179520180Y-82342493D01*
X179520180Y-82342493D02*
X179520180Y-82152017D01*
X179520180Y-82152017D02*
X179472561Y-82056779D01*
X179472561Y-82056779D02*
X179424942Y-82009160D01*
X179424942Y-82009160D02*
X179329704Y-81961541D01*
X179329704Y-81961541D02*
X179091609Y-81961541D01*
X179091609Y-81961541D02*
X178996371Y-82009160D01*
X178996371Y-82009160D02*
X178948752Y-82056779D01*
X178948752Y-82056779D02*
X178901133Y-82152017D01*
X178901133Y-82152017D02*
X178901133Y-82342493D01*
X178901133Y-82342493D02*
X178948752Y-82437731D01*
X178948752Y-82437731D02*
X178996371Y-82485350D01*
X178996371Y-82485350D02*
X179091609Y-82532969D01*
X186240839Y-70374942D02*
X186193220Y-70422561D01*
X186193220Y-70422561D02*
X186097982Y-70470180D01*
X186097982Y-70470180D02*
X185859887Y-70470180D01*
X185859887Y-70470180D02*
X185764649Y-70422561D01*
X185764649Y-70422561D02*
X185717030Y-70374942D01*
X185717030Y-70374942D02*
X185669411Y-70279704D01*
X185669411Y-70279704D02*
X185669411Y-70184466D01*
X185669411Y-70184466D02*
X185717030Y-70041609D01*
X185717030Y-70041609D02*
X186288458Y-69470180D01*
X186288458Y-69470180D02*
X185669411Y-69470180D01*
X185288458Y-70374942D02*
X185240839Y-70422561D01*
X185240839Y-70422561D02*
X185145601Y-70470180D01*
X185145601Y-70470180D02*
X184907506Y-70470180D01*
X184907506Y-70470180D02*
X184812268Y-70422561D01*
X184812268Y-70422561D02*
X184764649Y-70374942D01*
X184764649Y-70374942D02*
X184717030Y-70279704D01*
X184717030Y-70279704D02*
X184717030Y-70184466D01*
X184717030Y-70184466D02*
X184764649Y-70041609D01*
X184764649Y-70041609D02*
X185336077Y-69470180D01*
X185336077Y-69470180D02*
X184717030Y-69470180D01*
X181160839Y-70374942D02*
X181113220Y-70422561D01*
X181113220Y-70422561D02*
X181017982Y-70470180D01*
X181017982Y-70470180D02*
X180779887Y-70470180D01*
X180779887Y-70470180D02*
X180684649Y-70422561D01*
X180684649Y-70422561D02*
X180637030Y-70374942D01*
X180637030Y-70374942D02*
X180589411Y-70279704D01*
X180589411Y-70279704D02*
X180589411Y-70184466D01*
X180589411Y-70184466D02*
X180637030Y-70041609D01*
X180637030Y-70041609D02*
X181208458Y-69470180D01*
X181208458Y-69470180D02*
X180589411Y-69470180D01*
X179732268Y-70136847D02*
X179732268Y-69470180D01*
X179970363Y-70517800D02*
X180208458Y-69803514D01*
X180208458Y-69803514D02*
X179589411Y-69803514D01*
X179520180Y-83501541D02*
X179520180Y-84120588D01*
X179520180Y-84120588D02*
X179139228Y-83787255D01*
X179139228Y-83787255D02*
X179139228Y-83930112D01*
X179139228Y-83930112D02*
X179091609Y-84025350D01*
X179091609Y-84025350D02*
X179043990Y-84072969D01*
X179043990Y-84072969D02*
X178948752Y-84120588D01*
X178948752Y-84120588D02*
X178710657Y-84120588D01*
X178710657Y-84120588D02*
X178615419Y-84072969D01*
X178615419Y-84072969D02*
X178567800Y-84025350D01*
X178567800Y-84025350D02*
X178520180Y-83930112D01*
X178520180Y-83930112D02*
X178520180Y-83644398D01*
X178520180Y-83644398D02*
X178567800Y-83549160D01*
X178567800Y-83549160D02*
X178615419Y-83501541D01*
X179520180Y-84739636D02*
X179520180Y-84834874D01*
X179520180Y-84834874D02*
X179472561Y-84930112D01*
X179472561Y-84930112D02*
X179424942Y-84977731D01*
X179424942Y-84977731D02*
X179329704Y-85025350D01*
X179329704Y-85025350D02*
X179139228Y-85072969D01*
X179139228Y-85072969D02*
X178901133Y-85072969D01*
X178901133Y-85072969D02*
X178710657Y-85025350D01*
X178710657Y-85025350D02*
X178615419Y-84977731D01*
X178615419Y-84977731D02*
X178567800Y-84930112D01*
X178567800Y-84930112D02*
X178520180Y-84834874D01*
X178520180Y-84834874D02*
X178520180Y-84739636D01*
X178520180Y-84739636D02*
X178567800Y-84644398D01*
X178567800Y-84644398D02*
X178615419Y-84596779D01*
X178615419Y-84596779D02*
X178710657Y-84549160D01*
X178710657Y-84549160D02*
X178901133Y-84501541D01*
X178901133Y-84501541D02*
X179139228Y-84501541D01*
X179139228Y-84501541D02*
X179329704Y-84549160D01*
X179329704Y-84549160D02*
X179424942Y-84596779D01*
X179424942Y-84596779D02*
X179472561Y-84644398D01*
X179472561Y-84644398D02*
X179520180Y-84739636D01*
X192900350Y-100888152D02*
X192900350Y-101554819D01*
X192662255Y-100507200D02*
X192424160Y-101221485D01*
X192424160Y-101221485D02*
X193043207Y-101221485D01*
X193376541Y-100650057D02*
X193424160Y-100602438D01*
X193424160Y-100602438D02*
X193519398Y-100554819D01*
X193519398Y-100554819D02*
X193757493Y-100554819D01*
X193757493Y-100554819D02*
X193852731Y-100602438D01*
X193852731Y-100602438D02*
X193900350Y-100650057D01*
X193900350Y-100650057D02*
X193947969Y-100745295D01*
X193947969Y-100745295D02*
X193947969Y-100840533D01*
X193947969Y-100840533D02*
X193900350Y-100983390D01*
X193900350Y-100983390D02*
X193328922Y-101554819D01*
X193328922Y-101554819D02*
X193947969Y-101554819D01*
X179676541Y-100554819D02*
X180295588Y-100554819D01*
X180295588Y-100554819D02*
X179962255Y-100935771D01*
X179962255Y-100935771D02*
X180105112Y-100935771D01*
X180105112Y-100935771D02*
X180200350Y-100983390D01*
X180200350Y-100983390D02*
X180247969Y-101031009D01*
X180247969Y-101031009D02*
X180295588Y-101126247D01*
X180295588Y-101126247D02*
X180295588Y-101364342D01*
X180295588Y-101364342D02*
X180247969Y-101459580D01*
X180247969Y-101459580D02*
X180200350Y-101507200D01*
X180200350Y-101507200D02*
X180105112Y-101554819D01*
X180105112Y-101554819D02*
X179819398Y-101554819D01*
X179819398Y-101554819D02*
X179724160Y-101507200D01*
X179724160Y-101507200D02*
X179676541Y-101459580D01*
X180628922Y-100554819D02*
X181295588Y-100554819D01*
X181295588Y-100554819D02*
X180867017Y-101554819D01*
D10*
X166152300Y-97563972D02*
X166176109Y-97492544D01*
X166176109Y-97492544D02*
X166176109Y-97373496D01*
X166176109Y-97373496D02*
X166152300Y-97325877D01*
X166152300Y-97325877D02*
X166128490Y-97302068D01*
X166128490Y-97302068D02*
X166080871Y-97278258D01*
X166080871Y-97278258D02*
X166033252Y-97278258D01*
X166033252Y-97278258D02*
X165985633Y-97302068D01*
X165985633Y-97302068D02*
X165961823Y-97325877D01*
X165961823Y-97325877D02*
X165938014Y-97373496D01*
X165938014Y-97373496D02*
X165914204Y-97468734D01*
X165914204Y-97468734D02*
X165890395Y-97516353D01*
X165890395Y-97516353D02*
X165866585Y-97540163D01*
X165866585Y-97540163D02*
X165818966Y-97563972D01*
X165818966Y-97563972D02*
X165771347Y-97563972D01*
X165771347Y-97563972D02*
X165723728Y-97540163D01*
X165723728Y-97540163D02*
X165699919Y-97516353D01*
X165699919Y-97516353D02*
X165676109Y-97468734D01*
X165676109Y-97468734D02*
X165676109Y-97349687D01*
X165676109Y-97349687D02*
X165699919Y-97278258D01*
X165676109Y-97111592D02*
X166176109Y-96992544D01*
X166176109Y-96992544D02*
X165818966Y-96897306D01*
X165818966Y-96897306D02*
X166176109Y-96802068D01*
X166176109Y-96802068D02*
X165676109Y-96683021D01*
X166128490Y-96206830D02*
X166152300Y-96230639D01*
X166152300Y-96230639D02*
X166176109Y-96302068D01*
X166176109Y-96302068D02*
X166176109Y-96349687D01*
X166176109Y-96349687D02*
X166152300Y-96421115D01*
X166152300Y-96421115D02*
X166104680Y-96468734D01*
X166104680Y-96468734D02*
X166057061Y-96492544D01*
X166057061Y-96492544D02*
X165961823Y-96516353D01*
X165961823Y-96516353D02*
X165890395Y-96516353D01*
X165890395Y-96516353D02*
X165795157Y-96492544D01*
X165795157Y-96492544D02*
X165747538Y-96468734D01*
X165747538Y-96468734D02*
X165699919Y-96421115D01*
X165699919Y-96421115D02*
X165676109Y-96349687D01*
X165676109Y-96349687D02*
X165676109Y-96302068D01*
X165676109Y-96302068D02*
X165699919Y-96230639D01*
X165699919Y-96230639D02*
X165723728Y-96206830D01*
X166176109Y-95754449D02*
X166176109Y-95992544D01*
X166176109Y-95992544D02*
X165676109Y-95992544D01*
X166176109Y-95587782D02*
X165676109Y-95587782D01*
X166176109Y-95302068D02*
X165890395Y-95516353D01*
X165676109Y-95302068D02*
X165961823Y-95587782D01*
D11*
X179520180Y-96201541D02*
X179520180Y-96820588D01*
X179520180Y-96820588D02*
X179139228Y-96487255D01*
X179139228Y-96487255D02*
X179139228Y-96630112D01*
X179139228Y-96630112D02*
X179091609Y-96725350D01*
X179091609Y-96725350D02*
X179043990Y-96772969D01*
X179043990Y-96772969D02*
X178948752Y-96820588D01*
X178948752Y-96820588D02*
X178710657Y-96820588D01*
X178710657Y-96820588D02*
X178615419Y-96772969D01*
X178615419Y-96772969D02*
X178567800Y-96725350D01*
X178567800Y-96725350D02*
X178520180Y-96630112D01*
X178520180Y-96630112D02*
X178520180Y-96344398D01*
X178520180Y-96344398D02*
X178567800Y-96249160D01*
X178567800Y-96249160D02*
X178615419Y-96201541D01*
X179520180Y-97725350D02*
X179520180Y-97249160D01*
X179520180Y-97249160D02*
X179043990Y-97201541D01*
X179043990Y-97201541D02*
X179091609Y-97249160D01*
X179091609Y-97249160D02*
X179139228Y-97344398D01*
X179139228Y-97344398D02*
X179139228Y-97582493D01*
X179139228Y-97582493D02*
X179091609Y-97677731D01*
X179091609Y-97677731D02*
X179043990Y-97725350D01*
X179043990Y-97725350D02*
X178948752Y-97772969D01*
X178948752Y-97772969D02*
X178710657Y-97772969D01*
X178710657Y-97772969D02*
X178615419Y-97725350D01*
X178615419Y-97725350D02*
X178567800Y-97677731D01*
X178567800Y-97677731D02*
X178520180Y-97582493D01*
X178520180Y-97582493D02*
X178520180Y-97344398D01*
X178520180Y-97344398D02*
X178567800Y-97249160D01*
X178567800Y-97249160D02*
X178615419Y-97201541D01*
X209958390Y-81840363D02*
X209910771Y-81935601D01*
X209910771Y-81935601D02*
X209863152Y-81983220D01*
X209863152Y-81983220D02*
X209767914Y-82030839D01*
X209767914Y-82030839D02*
X209720295Y-82030839D01*
X209720295Y-82030839D02*
X209625057Y-81983220D01*
X209625057Y-81983220D02*
X209577438Y-81935601D01*
X209577438Y-81935601D02*
X209529819Y-81840363D01*
X209529819Y-81840363D02*
X209529819Y-81649887D01*
X209529819Y-81649887D02*
X209577438Y-81554649D01*
X209577438Y-81554649D02*
X209625057Y-81507030D01*
X209625057Y-81507030D02*
X209720295Y-81459411D01*
X209720295Y-81459411D02*
X209767914Y-81459411D01*
X209767914Y-81459411D02*
X209863152Y-81507030D01*
X209863152Y-81507030D02*
X209910771Y-81554649D01*
X209910771Y-81554649D02*
X209958390Y-81649887D01*
X209958390Y-81649887D02*
X209958390Y-81840363D01*
X209958390Y-81840363D02*
X210006009Y-81935601D01*
X210006009Y-81935601D02*
X210053628Y-81983220D01*
X210053628Y-81983220D02*
X210148866Y-82030839D01*
X210148866Y-82030839D02*
X210339342Y-82030839D01*
X210339342Y-82030839D02*
X210434580Y-81983220D01*
X210434580Y-81983220D02*
X210482200Y-81935601D01*
X210482200Y-81935601D02*
X210529819Y-81840363D01*
X210529819Y-81840363D02*
X210529819Y-81649887D01*
X210529819Y-81649887D02*
X210482200Y-81554649D01*
X210482200Y-81554649D02*
X210434580Y-81507030D01*
X210434580Y-81507030D02*
X210339342Y-81459411D01*
X210339342Y-81459411D02*
X210148866Y-81459411D01*
X210148866Y-81459411D02*
X210053628Y-81507030D01*
X210053628Y-81507030D02*
X210006009Y-81554649D01*
X210006009Y-81554649D02*
X209958390Y-81649887D01*
X187541009Y-97659887D02*
X187588628Y-97517030D01*
X187588628Y-97517030D02*
X187636247Y-97469411D01*
X187636247Y-97469411D02*
X187731485Y-97421792D01*
X187731485Y-97421792D02*
X187874342Y-97421792D01*
X187874342Y-97421792D02*
X187969580Y-97469411D01*
X187969580Y-97469411D02*
X188017200Y-97517030D01*
X188017200Y-97517030D02*
X188064819Y-97612268D01*
X188064819Y-97612268D02*
X188064819Y-97993220D01*
X188064819Y-97993220D02*
X187064819Y-97993220D01*
X187064819Y-97993220D02*
X187064819Y-97659887D01*
X187064819Y-97659887D02*
X187112438Y-97564649D01*
X187112438Y-97564649D02*
X187160057Y-97517030D01*
X187160057Y-97517030D02*
X187255295Y-97469411D01*
X187255295Y-97469411D02*
X187350533Y-97469411D01*
X187350533Y-97469411D02*
X187445771Y-97517030D01*
X187445771Y-97517030D02*
X187493390Y-97564649D01*
X187493390Y-97564649D02*
X187541009Y-97659887D01*
X187541009Y-97659887D02*
X187541009Y-97993220D01*
X188064819Y-96850363D02*
X188017200Y-96945601D01*
X188017200Y-96945601D02*
X187969580Y-96993220D01*
X187969580Y-96993220D02*
X187874342Y-97040839D01*
X187874342Y-97040839D02*
X187588628Y-97040839D01*
X187588628Y-97040839D02*
X187493390Y-96993220D01*
X187493390Y-96993220D02*
X187445771Y-96945601D01*
X187445771Y-96945601D02*
X187398152Y-96850363D01*
X187398152Y-96850363D02*
X187398152Y-96707506D01*
X187398152Y-96707506D02*
X187445771Y-96612268D01*
X187445771Y-96612268D02*
X187493390Y-96564649D01*
X187493390Y-96564649D02*
X187588628Y-96517030D01*
X187588628Y-96517030D02*
X187874342Y-96517030D01*
X187874342Y-96517030D02*
X187969580Y-96564649D01*
X187969580Y-96564649D02*
X188017200Y-96612268D01*
X188017200Y-96612268D02*
X188064819Y-96707506D01*
X188064819Y-96707506D02*
X188064819Y-96850363D01*
X188064819Y-95945601D02*
X188017200Y-96040839D01*
X188017200Y-96040839D02*
X187969580Y-96088458D01*
X187969580Y-96088458D02*
X187874342Y-96136077D01*
X187874342Y-96136077D02*
X187588628Y-96136077D01*
X187588628Y-96136077D02*
X187493390Y-96088458D01*
X187493390Y-96088458D02*
X187445771Y-96040839D01*
X187445771Y-96040839D02*
X187398152Y-95945601D01*
X187398152Y-95945601D02*
X187398152Y-95802744D01*
X187398152Y-95802744D02*
X187445771Y-95707506D01*
X187445771Y-95707506D02*
X187493390Y-95659887D01*
X187493390Y-95659887D02*
X187588628Y-95612268D01*
X187588628Y-95612268D02*
X187874342Y-95612268D01*
X187874342Y-95612268D02*
X187969580Y-95659887D01*
X187969580Y-95659887D02*
X188017200Y-95707506D01*
X188017200Y-95707506D02*
X188064819Y-95802744D01*
X188064819Y-95802744D02*
X188064819Y-95945601D01*
X187398152Y-95326553D02*
X187398152Y-94945601D01*
X187064819Y-95183696D02*
X187921961Y-95183696D01*
X187921961Y-95183696D02*
X188017200Y-95136077D01*
X188017200Y-95136077D02*
X188064819Y-95040839D01*
X188064819Y-95040839D02*
X188064819Y-94945601D01*
X188064819Y-94088458D02*
X188064819Y-94659886D01*
X188064819Y-94374172D02*
X187064819Y-94374172D01*
X187064819Y-94374172D02*
X187207676Y-94469410D01*
X187207676Y-94469410D02*
X187302914Y-94564648D01*
X187302914Y-94564648D02*
X187350533Y-94659886D01*
X205836411Y-96322112D02*
X205836411Y-96389456D01*
X205836411Y-96389456D02*
X205769067Y-96524143D01*
X205769067Y-96524143D02*
X205701724Y-96591486D01*
X205701724Y-96591486D02*
X205567037Y-96658830D01*
X205567037Y-96658830D02*
X205432350Y-96658830D01*
X205432350Y-96658830D02*
X205331335Y-96625158D01*
X205331335Y-96625158D02*
X205162976Y-96524143D01*
X205162976Y-96524143D02*
X205061961Y-96423128D01*
X205061961Y-96423128D02*
X204960945Y-96254769D01*
X204960945Y-96254769D02*
X204927274Y-96153754D01*
X204927274Y-96153754D02*
X204927274Y-96019067D01*
X204927274Y-96019067D02*
X204994617Y-95884380D01*
X204994617Y-95884380D02*
X205061961Y-95817036D01*
X205061961Y-95817036D02*
X205196648Y-95749693D01*
X205196648Y-95749693D02*
X205263991Y-95749693D01*
X205802739Y-95076258D02*
X205668052Y-95210945D01*
X205668052Y-95210945D02*
X205634380Y-95311960D01*
X205634380Y-95311960D02*
X205634380Y-95379303D01*
X205634380Y-95379303D02*
X205668052Y-95547662D01*
X205668052Y-95547662D02*
X205769067Y-95716021D01*
X205769067Y-95716021D02*
X206038441Y-95985395D01*
X206038441Y-95985395D02*
X206139457Y-96019067D01*
X206139457Y-96019067D02*
X206206800Y-96019067D01*
X206206800Y-96019067D02*
X206307815Y-95985395D01*
X206307815Y-95985395D02*
X206442502Y-95850708D01*
X206442502Y-95850708D02*
X206476174Y-95749693D01*
X206476174Y-95749693D02*
X206476174Y-95682349D01*
X206476174Y-95682349D02*
X206442502Y-95581334D01*
X206442502Y-95581334D02*
X206274144Y-95412975D01*
X206274144Y-95412975D02*
X206173128Y-95379303D01*
X206173128Y-95379303D02*
X206105785Y-95379303D01*
X206105785Y-95379303D02*
X206004770Y-95412975D01*
X206004770Y-95412975D02*
X205870083Y-95547662D01*
X205870083Y-95547662D02*
X205836411Y-95648677D01*
X205836411Y-95648677D02*
X205836411Y-95716021D01*
X205836411Y-95716021D02*
X205870083Y-95817036D01*
X207261411Y-94847112D02*
X207261411Y-94914456D01*
X207261411Y-94914456D02*
X207194067Y-95049143D01*
X207194067Y-95049143D02*
X207126724Y-95116486D01*
X207126724Y-95116486D02*
X206992037Y-95183830D01*
X206992037Y-95183830D02*
X206857350Y-95183830D01*
X206857350Y-95183830D02*
X206756335Y-95150158D01*
X206756335Y-95150158D02*
X206587976Y-95049143D01*
X206587976Y-95049143D02*
X206486961Y-94948128D01*
X206486961Y-94948128D02*
X206385945Y-94779769D01*
X206385945Y-94779769D02*
X206352274Y-94678754D01*
X206352274Y-94678754D02*
X206352274Y-94544067D01*
X206352274Y-94544067D02*
X206419617Y-94409380D01*
X206419617Y-94409380D02*
X206486961Y-94342036D01*
X206486961Y-94342036D02*
X206621648Y-94274693D01*
X206621648Y-94274693D02*
X206688991Y-94274693D01*
X206857350Y-93971647D02*
X207328754Y-93500242D01*
X207328754Y-93500242D02*
X207732815Y-94510395D01*
X206986411Y-86197111D02*
X206986411Y-86264455D01*
X206986411Y-86264455D02*
X206919067Y-86399142D01*
X206919067Y-86399142D02*
X206851724Y-86466485D01*
X206851724Y-86466485D02*
X206717037Y-86533829D01*
X206717037Y-86533829D02*
X206582350Y-86533829D01*
X206582350Y-86533829D02*
X206481335Y-86500157D01*
X206481335Y-86500157D02*
X206312976Y-86399142D01*
X206312976Y-86399142D02*
X206211961Y-86298127D01*
X206211961Y-86298127D02*
X206110945Y-86129768D01*
X206110945Y-86129768D02*
X206077274Y-86028753D01*
X206077274Y-86028753D02*
X206077274Y-85894066D01*
X206077274Y-85894066D02*
X206144617Y-85759379D01*
X206144617Y-85759379D02*
X206211961Y-85692035D01*
X206211961Y-85692035D02*
X206346648Y-85624692D01*
X206346648Y-85624692D02*
X206413991Y-85624692D01*
X206986411Y-84917585D02*
X206649693Y-85254302D01*
X206649693Y-85254302D02*
X206952739Y-85624692D01*
X206952739Y-85624692D02*
X206952739Y-85557348D01*
X206952739Y-85557348D02*
X206986411Y-85456333D01*
X206986411Y-85456333D02*
X207154770Y-85287974D01*
X207154770Y-85287974D02*
X207255785Y-85254302D01*
X207255785Y-85254302D02*
X207323128Y-85254302D01*
X207323128Y-85254302D02*
X207424144Y-85287974D01*
X207424144Y-85287974D02*
X207592502Y-85456333D01*
X207592502Y-85456333D02*
X207626174Y-85557348D01*
X207626174Y-85557348D02*
X207626174Y-85624692D01*
X207626174Y-85624692D02*
X207592502Y-85725707D01*
X207592502Y-85725707D02*
X207424144Y-85894066D01*
X207424144Y-85894066D02*
X207323128Y-85927737D01*
X207323128Y-85927737D02*
X207255785Y-85927737D01*
X201423170Y-84296605D02*
X201759888Y-84633323D01*
X200817079Y-84161918D02*
X201423170Y-84296605D01*
X201423170Y-84296605D02*
X201288483Y-83690514D01*
X202601681Y-83791529D02*
X202197620Y-84195590D01*
X202399651Y-83993559D02*
X201692544Y-83286453D01*
X201692544Y-83286453D02*
X201726216Y-83454811D01*
X201726216Y-83454811D02*
X201726216Y-83589498D01*
X201726216Y-83589498D02*
X201692544Y-83690514D01*
X169463095Y-65829819D02*
X169463095Y-66639342D01*
X169463095Y-66639342D02*
X169510714Y-66734580D01*
X169510714Y-66734580D02*
X169558333Y-66782200D01*
X169558333Y-66782200D02*
X169653571Y-66829819D01*
X169653571Y-66829819D02*
X169844047Y-66829819D01*
X169844047Y-66829819D02*
X169939285Y-66782200D01*
X169939285Y-66782200D02*
X169986904Y-66734580D01*
X169986904Y-66734580D02*
X170034523Y-66639342D01*
X170034523Y-66639342D02*
X170034523Y-65829819D01*
X170463095Y-65925057D02*
X170510714Y-65877438D01*
X170510714Y-65877438D02*
X170605952Y-65829819D01*
X170605952Y-65829819D02*
X170844047Y-65829819D01*
X170844047Y-65829819D02*
X170939285Y-65877438D01*
X170939285Y-65877438D02*
X170986904Y-65925057D01*
X170986904Y-65925057D02*
X171034523Y-66020295D01*
X171034523Y-66020295D02*
X171034523Y-66115533D01*
X171034523Y-66115533D02*
X170986904Y-66258390D01*
X170986904Y-66258390D02*
X170415476Y-66829819D01*
X170415476Y-66829819D02*
X171034523Y-66829819D01*
X200103394Y-92848170D02*
X199766676Y-93184888D01*
X200238081Y-92242079D02*
X200103394Y-92848170D01*
X200103394Y-92848170D02*
X200709485Y-92713483D01*
X200844172Y-92982857D02*
X200911516Y-92982857D01*
X200911516Y-92982857D02*
X201012531Y-93016529D01*
X201012531Y-93016529D02*
X201180890Y-93184888D01*
X201180890Y-93184888D02*
X201214562Y-93285903D01*
X201214562Y-93285903D02*
X201214562Y-93353246D01*
X201214562Y-93353246D02*
X201180890Y-93454262D01*
X201180890Y-93454262D02*
X201113546Y-93521605D01*
X201113546Y-93521605D02*
X200978859Y-93588949D01*
X200978859Y-93588949D02*
X200170737Y-93588949D01*
X200170737Y-93588949D02*
X200608470Y-94026681D01*
X197563095Y-89654819D02*
X197563095Y-90464342D01*
X197563095Y-90464342D02*
X197610714Y-90559580D01*
X197610714Y-90559580D02*
X197658333Y-90607200D01*
X197658333Y-90607200D02*
X197753571Y-90654819D01*
X197753571Y-90654819D02*
X197944047Y-90654819D01*
X197944047Y-90654819D02*
X198039285Y-90607200D01*
X198039285Y-90607200D02*
X198086904Y-90559580D01*
X198086904Y-90559580D02*
X198134523Y-90464342D01*
X198134523Y-90464342D02*
X198134523Y-89654819D01*
X199134523Y-90654819D02*
X198563095Y-90654819D01*
X198848809Y-90654819D02*
X198848809Y-89654819D01*
X198848809Y-89654819D02*
X198753571Y-89797676D01*
X198753571Y-89797676D02*
X198658333Y-89892914D01*
X198658333Y-89892914D02*
X198563095Y-89940533D01*
X206611412Y-90097112D02*
X206611412Y-90164456D01*
X206611412Y-90164456D02*
X206544068Y-90299143D01*
X206544068Y-90299143D02*
X206476725Y-90366486D01*
X206476725Y-90366486D02*
X206342038Y-90433830D01*
X206342038Y-90433830D02*
X206207351Y-90433830D01*
X206207351Y-90433830D02*
X206106336Y-90400158D01*
X206106336Y-90400158D02*
X205937977Y-90299143D01*
X205937977Y-90299143D02*
X205836962Y-90198128D01*
X205836962Y-90198128D02*
X205735946Y-90029769D01*
X205735946Y-90029769D02*
X205702275Y-89928754D01*
X205702275Y-89928754D02*
X205702275Y-89794067D01*
X205702275Y-89794067D02*
X205769618Y-89659380D01*
X205769618Y-89659380D02*
X205836962Y-89592036D01*
X205836962Y-89592036D02*
X205971649Y-89524693D01*
X205971649Y-89524693D02*
X206038992Y-89524693D01*
X206813442Y-89086960D02*
X207284847Y-89558364D01*
X206375710Y-88985945D02*
X206712427Y-89659380D01*
X206712427Y-89659380D02*
X207150160Y-89221647D01*
D12*
%TO.C,J6*%
X175470000Y-70155000D02*
X176850000Y-70155000D01*
X175470000Y-71535000D02*
X175470000Y-70155000D01*
X175470000Y-72805000D02*
X175470000Y-100855000D01*
X175470000Y-72805000D02*
X178230000Y-72805000D01*
X175470000Y-100855000D02*
X178230000Y-100855000D01*
X178230000Y-72805000D02*
X178230000Y-100855000D01*
%TO.C,C6*%
X203195543Y-94634990D02*
X203565010Y-95004457D01*
X204234990Y-93595543D02*
X204604457Y-93965010D01*
%TO.C,C7*%
X204745543Y-93084990D02*
X205115010Y-93454457D01*
X205784990Y-92045543D02*
X206154457Y-92415010D01*
%TO.C,J4*%
X210795000Y-98260000D02*
X210795000Y-70210000D01*
X213555000Y-70210000D02*
X210795000Y-70210000D01*
X213555000Y-98260000D02*
X210795000Y-98260000D01*
X213555000Y-98260000D02*
X213555000Y-70210000D01*
X213555000Y-99530000D02*
X213555000Y-100910000D01*
X213555000Y-100910000D02*
X212175000Y-100910000D01*
%TO.C,C5*%
X204435860Y-84409990D02*
X204805327Y-84779457D01*
X205475307Y-83370543D02*
X205844774Y-83740010D01*
D13*
%TO.C,J3*%
X153725000Y-67960000D02*
X153725000Y-79140000D01*
X153725000Y-79140000D02*
X154645000Y-79140000D01*
X154645000Y-67960000D02*
X153725000Y-67960000D01*
X157005000Y-67960000D02*
X158795000Y-67960000D01*
X157005000Y-79140000D02*
X158795000Y-79140000D01*
D11*
%TO.C,SW5*%
X182180000Y-71660000D02*
X182610000Y-71660000D01*
X182180000Y-75720000D02*
X182180000Y-71660000D01*
X182610000Y-75720000D02*
X182180000Y-75720000D01*
X185260000Y-71660000D02*
X184830000Y-71660000D01*
X185260000Y-75720000D02*
X184830000Y-75720000D01*
X185260000Y-75720000D02*
X185260000Y-71660000D01*
D13*
X184620000Y-73690000D02*
G75*
G02*
X182820000Y-73690000I-900000J0D01*
G01*
X182820000Y-73690000D02*
G75*
G02*
X184620000Y-73690000I900000J0D01*
G01*
D12*
%TO.C,Y1*%
X199974524Y-86822487D02*
X202392830Y-89240793D01*
X202392830Y-89240793D02*
X205306110Y-86327513D01*
%TO.C,U2*%
X168165000Y-67215000D02*
X172285000Y-67215000D01*
X168165000Y-67270000D02*
X168165000Y-67215000D01*
X168165000Y-77335000D02*
X168165000Y-77280000D01*
X172285000Y-67215000D02*
X172285000Y-67270000D01*
X172285000Y-77280000D02*
X172285000Y-77335000D01*
X172285000Y-77335000D02*
X168165000Y-77335000D01*
X167625000Y-67265000D02*
X167385000Y-66935000D01*
X167865000Y-66935000D01*
X167625000Y-67265000D01*
G36*
X167625000Y-67265000D02*
G01*
X167385000Y-66935000D01*
X167865000Y-66935000D01*
X167625000Y-67265000D01*
G37*
%TO.C,Y2*%
X202233579Y-90153984D02*
X201278984Y-91108579D01*
X203471016Y-91391421D02*
X202516421Y-92346016D01*
D13*
%TO.C,J1*%
X153750000Y-81610000D02*
X153750000Y-92790000D01*
X153750000Y-92790000D02*
X154670000Y-92790000D01*
X154670000Y-81610000D02*
X153750000Y-81610000D01*
X157030000Y-81610000D02*
X158820000Y-81610000D01*
X157030000Y-92790000D02*
X158820000Y-92790000D01*
D12*
%TO.C,D2*%
X164515000Y-78402500D02*
X164515000Y-81087500D01*
X166435000Y-78402500D02*
X164515000Y-78402500D01*
X166435000Y-81087500D02*
X166435000Y-78402500D01*
%TO.C,J5*%
X179100000Y-66470000D02*
X179100000Y-69230000D01*
X207150000Y-66470000D02*
X179100000Y-66470000D01*
X207150000Y-66470000D02*
X207150000Y-69230000D01*
X207150000Y-69230000D02*
X179100000Y-69230000D01*
X208420000Y-66470000D02*
X209800000Y-66470000D01*
X209800000Y-66470000D02*
X209800000Y-67850000D01*
%TO.C,J2*%
X154125000Y-96100000D02*
X160125000Y-96100000D01*
X154125000Y-96960000D02*
X154125000Y-96100000D01*
X154125000Y-98640000D02*
X160125000Y-98640000D01*
X154125000Y-99500000D02*
X154125000Y-98640000D01*
X154125000Y-101180000D02*
X160125000Y-101180000D01*
X154125000Y-102040000D02*
X154125000Y-101180000D01*
X160125000Y-96960000D02*
X154125000Y-96960000D01*
X160125000Y-99500000D02*
X154125000Y-99500000D01*
X160125000Y-102040000D02*
X154125000Y-102040000D01*
X162885000Y-97800000D02*
X160125000Y-97800000D01*
X162885000Y-100340000D02*
X160125000Y-100340000D01*
X162885000Y-102880000D02*
X160125000Y-102880000D01*
X163115000Y-103720000D02*
X162885000Y-103720000D01*
X163115000Y-104580000D02*
X162885000Y-104580000D01*
X163197642Y-96100000D02*
X162885000Y-96100000D01*
X163197642Y-96960000D02*
X162885000Y-96960000D01*
X163197642Y-98640000D02*
X162885000Y-98640000D01*
X163197642Y-99500000D02*
X162885000Y-99500000D01*
X163197642Y-101180000D02*
X162885000Y-101180000D01*
X163197642Y-102040000D02*
X162885000Y-102040000D01*
X165545000Y-104150000D02*
X165545000Y-105420000D01*
X165545000Y-105420000D02*
X164275000Y-105420000D01*
X160125000Y-104580000D02*
X154125000Y-104580000D01*
X154125000Y-103720000D01*
X160125000Y-103720000D01*
X160125000Y-104580000D01*
G36*
X160125000Y-104580000D02*
G01*
X154125000Y-104580000D01*
X154125000Y-103720000D01*
X160125000Y-103720000D01*
X160125000Y-104580000D01*
G37*
X162885000Y-105530000D02*
X160125000Y-105530000D01*
X160125000Y-95150000D01*
X162885000Y-95150000D01*
X162885000Y-105530000D01*
%TO.C,J7*%
X179165000Y-104555000D02*
X179165000Y-103175000D01*
X180545000Y-104555000D02*
X179165000Y-104555000D01*
X181815000Y-101795000D02*
X209865000Y-101795000D01*
X181815000Y-104555000D02*
X181815000Y-101795000D01*
X181815000Y-104555000D02*
X209865000Y-104555000D01*
X209865000Y-104555000D02*
X209865000Y-101795000D01*
%TO.C,D1*%
X161640000Y-78527500D02*
X161640000Y-81212500D01*
X163560000Y-78527500D02*
X161640000Y-78527500D01*
X163560000Y-81212500D02*
X163560000Y-78527500D01*
%TO.C,U1*%
X190377500Y-82043858D02*
X190827500Y-82043858D01*
X190377500Y-82493858D02*
X190377500Y-82043858D01*
X190377500Y-89263858D02*
X190377500Y-88813858D01*
X190827500Y-89263858D02*
X190377500Y-89263858D01*
X197147500Y-82043858D02*
X197597500Y-82043858D01*
X197597500Y-82043858D02*
X197597500Y-82493858D01*
X197597500Y-88813858D02*
X197597500Y-89263858D01*
X197597500Y-89263858D02*
X197147500Y-89263858D01*
X198577500Y-89283858D02*
X197897500Y-89283858D01*
X198237500Y-88813858D01*
X198577500Y-89283858D01*
G36*
X198577500Y-89283858D02*
G01*
X197897500Y-89283858D01*
X198237500Y-88813858D01*
X198577500Y-89283858D01*
G37*
%TO.C,C4*%
X204485860Y-88215010D02*
X204855327Y-87845543D01*
X205525307Y-89254457D02*
X205894774Y-88884990D01*
%TD*%
%LPC*%
D14*
%TO.C,J6*%
X176850000Y-71535000D03*
D15*
X176850000Y-74075000D03*
X176850000Y-76615000D03*
X176850000Y-79155000D03*
X176850000Y-81695000D03*
X176850000Y-84235000D03*
X176850000Y-86775000D03*
X176850000Y-89315000D03*
X176850000Y-91855000D03*
X176850000Y-94395000D03*
X176850000Y-96935000D03*
X176850000Y-99475000D03*
%TD*%
D16*
%TO.C,C6*%
X203228249Y-93628249D03*
X204571751Y-94971751D03*
%TD*%
D17*
%TO.C,SW3*%
X189630000Y-99140000D03*
X192130000Y-99140000D03*
X194630000Y-99140000D03*
X189630000Y-93340000D03*
X192130000Y-93340000D03*
X194630000Y-93340000D03*
%TD*%
D16*
%TO.C,C7*%
X204778249Y-92078249D03*
X206121751Y-93421751D03*
%TD*%
D14*
%TO.C,J4*%
X212175000Y-99530000D03*
D15*
X212175000Y-96990000D03*
X212175000Y-94450000D03*
X212175000Y-91910000D03*
X212175000Y-89370000D03*
X212175000Y-86830000D03*
X212175000Y-84290000D03*
X212175000Y-81750000D03*
X212175000Y-79210000D03*
X212175000Y-76670000D03*
X212175000Y-74130000D03*
X212175000Y-71590000D03*
%TD*%
D16*
%TO.C,C5*%
X204468566Y-83403249D03*
X205812068Y-84746751D03*
%TD*%
D18*
%TO.C,J3*%
X161025000Y-70350000D03*
X161025000Y-76750000D03*
X161025000Y-71150000D03*
X161025000Y-75950000D03*
D19*
X161025000Y-72300000D03*
X161025000Y-73300000D03*
X161025000Y-73800000D03*
X161025000Y-74800000D03*
X161025000Y-75300000D03*
X161025000Y-74300000D03*
X161025000Y-72800000D03*
X161025000Y-71800000D03*
D20*
X159825000Y-67950000D03*
D21*
X155825000Y-67950000D03*
D20*
X159825000Y-79150000D03*
D21*
X155825000Y-79150000D03*
%TD*%
D22*
%TO.C,SW5*%
X183720000Y-71510000D03*
X183720000Y-75870000D03*
%TD*%
D23*
%TO.C,Y1*%
X202463540Y-87953858D03*
X204019175Y-86398223D03*
X202817094Y-85196142D03*
X201261459Y-86751777D03*
%TD*%
D24*
%TO.C,U2*%
X167750000Y-67830000D03*
X167750000Y-69100000D03*
X167750000Y-70370000D03*
X167750000Y-71640000D03*
X167750000Y-72910000D03*
X167750000Y-74180000D03*
X167750000Y-75450000D03*
X167750000Y-76720000D03*
X172700000Y-76720000D03*
X172700000Y-75450000D03*
X172700000Y-74180000D03*
X172700000Y-72910000D03*
X172700000Y-71640000D03*
X172700000Y-70370000D03*
X172700000Y-69100000D03*
X172700000Y-67830000D03*
%TD*%
D17*
%TO.C,SW4*%
X180890000Y-99110000D03*
X183390000Y-99110000D03*
X185890000Y-99110000D03*
X180890000Y-93310000D03*
X183390000Y-93310000D03*
X185890000Y-93310000D03*
%TD*%
D25*
%TO.C,Y2*%
X201491117Y-92133883D03*
X203258883Y-90366117D03*
%TD*%
D18*
%TO.C,J1*%
X161050000Y-84000000D03*
X161050000Y-90400000D03*
X161050000Y-84800000D03*
X161050000Y-89600000D03*
D19*
X161050000Y-85950000D03*
X161050000Y-86950000D03*
X161050000Y-87450000D03*
X161050000Y-88450000D03*
X161050000Y-88950000D03*
X161050000Y-87950000D03*
X161050000Y-86450000D03*
X161050000Y-85450000D03*
D20*
X159850000Y-81600000D03*
D21*
X155850000Y-81600000D03*
D20*
X159850000Y-92800000D03*
D21*
X155850000Y-92800000D03*
%TD*%
D26*
%TO.C,D2*%
X165475000Y-79150000D03*
X165475000Y-81025000D03*
%TD*%
D14*
%TO.C,J5*%
X208420000Y-67850000D03*
D15*
X205880000Y-67850000D03*
X203340000Y-67850000D03*
X200800000Y-67850000D03*
X198260000Y-67850000D03*
X195720000Y-67850000D03*
X193180000Y-67850000D03*
X190640000Y-67850000D03*
X188100000Y-67850000D03*
X185560000Y-67850000D03*
X183020000Y-67850000D03*
X180480000Y-67850000D03*
%TD*%
D14*
%TO.C,J2*%
X164275000Y-104150000D03*
D15*
X164275000Y-101610000D03*
X164275000Y-99070000D03*
X164275000Y-96530000D03*
%TD*%
D14*
%TO.C,J7*%
X180545000Y-103175000D03*
D15*
X183085000Y-103175000D03*
X185625000Y-103175000D03*
X188165000Y-103175000D03*
X190705000Y-103175000D03*
X193245000Y-103175000D03*
X195785000Y-103175000D03*
X198325000Y-103175000D03*
X200865000Y-103175000D03*
X203405000Y-103175000D03*
X205945000Y-103175000D03*
X208485000Y-103175000D03*
%TD*%
D26*
%TO.C,D1*%
X162600000Y-79275000D03*
X162600000Y-81150000D03*
%TD*%
D17*
%TO.C,SW2*%
X168437500Y-84035000D03*
X165937500Y-84035000D03*
X163437500Y-84035000D03*
X168437500Y-89835000D03*
X165937500Y-89835000D03*
X163437500Y-89835000D03*
%TD*%
D27*
%TO.C,U1*%
X198150000Y-88403858D03*
X198150000Y-87903858D03*
X198150000Y-87403858D03*
X198150000Y-86903858D03*
X198150000Y-86403858D03*
X198150000Y-85903858D03*
X198150000Y-85403858D03*
X198150000Y-84903858D03*
X198150000Y-84403858D03*
X198150000Y-83903858D03*
X198150000Y-83403858D03*
X198150000Y-82903858D03*
D28*
X196737500Y-81491358D03*
X196237500Y-81491358D03*
X195737500Y-81491358D03*
X195237500Y-81491358D03*
X194737500Y-81491358D03*
X194237500Y-81491358D03*
X193737500Y-81491358D03*
X193237500Y-81491358D03*
X192737500Y-81491358D03*
X192237500Y-81491358D03*
X191737500Y-81491358D03*
X191237500Y-81491358D03*
D27*
X189825000Y-82903858D03*
X189825000Y-83403858D03*
X189825000Y-83903858D03*
X189825000Y-84403858D03*
X189825000Y-84903858D03*
X189825000Y-85403858D03*
X189825000Y-85903858D03*
X189825000Y-86403858D03*
X189825000Y-86903858D03*
X189825000Y-87403858D03*
X189825000Y-87903858D03*
X189825000Y-88403858D03*
D28*
X191237500Y-89816358D03*
X191737500Y-89816358D03*
X192237500Y-89816358D03*
X192737500Y-89816358D03*
X193237500Y-89816358D03*
X193737500Y-89816358D03*
X194237500Y-89816358D03*
X194737500Y-89816358D03*
X195237500Y-89816358D03*
X195737500Y-89816358D03*
X196237500Y-89816358D03*
X196737500Y-89816358D03*
%TD*%
D29*
%TO.C,SW1*%
X173300000Y-101595000D03*
X173300000Y-99095000D03*
X173300000Y-96595000D03*
X167500000Y-101595000D03*
X167500000Y-99095000D03*
X167500000Y-96595000D03*
%TD*%
D30*
%TO.C,C4*%
X204518566Y-89221751D03*
X205862068Y-87878249D03*
%TD*%
%LPD*%
M02*
