M48
; DRILL file {KiCad 9.0.8} date 2026-03-19T17:23:29+0800
; FORMAT={-:-/ absolute / metric / decimal}
; #@! TF.CreationDate,2026-03-19T17:23:29+08:00
; #@! TF.GenerationSoftware,Kicad,Pcbnew,9.0.8
; #@! TF.FileFunction,Plated,1,2,PTH
FMAT,2
METRIC
; #@! TA.AperFunction,Plated,PTH,ViaDrill
T1C0.300
; #@! TA.AperFunction,Plated,PTH,ComponentDrill
T2C0.600
; #@! TA.AperFunction,Plated,PTH,ComponentDrill
T3C1.000
%
G90
G05
T1
X161.948Y-72.248
X162.05Y-75.3
X162.075Y-74.352
X162.175Y-88.8
X162.2Y-85.575
X162.6Y-80.225
X163.775Y-72.194
X164.3Y-86.823
X164.3Y-87.575
X164.73Y-74.98
X165.475Y-80.1
X165.625Y-68.65
X165.675Y-71.25
X165.75Y-103.95
X166.022Y-95.852
X166.032Y-100.127
X166.273Y-72.748
X166.275Y-74.275
X166.975Y-66.925
X167.2Y-79.15
X167.375Y-92.625
X167.525Y-86.823
X167.525Y-87.575
X167.92Y-95.05
X168.1Y-80.925
X168.425Y-103.825
X168.96Y-99.78
X169.025Y-93.925
X169.125Y-68.625
X169.14Y-79.41
X169.25Y-91.475
X169.251Y-86.421
X169.325Y-71.225
X169.6Y-98.2
X169.62Y-96.76
X169.766Y-85.725
X170.325Y-85.075
X170.375Y-93.9
X171.0Y-85.45
X171.0Y-88.425
X171.125Y-66.15
X171.65Y-97.7
X172.35Y-66.725
X174.7Y-66.81
X175.008Y-82.88
X175.068Y-93.13
X175.55Y-90.52
X175.56Y-85.47
X175.62Y-95.26
X178.41Y-99.48
X179.19Y-83.69
X179.35Y-86.25
X179.35Y-87.002
X180.132Y-85.718
X180.195Y-87.795
X180.457Y-101.609
X181.49Y-82.52
X181.625Y-66.725
X181.76Y-69.35
X182.04Y-99.11
X182.81Y-81.36
X183.225Y-79.175
X183.39Y-97.74
X185.26Y-75.87
X185.5Y-71.56
X185.89Y-94.855
X185.89Y-97.485
X186.93Y-104.22
X188.525Y-96.15
X188.57Y-99.11
X189.74Y-75.15
X189.87Y-70.84
X190.4Y-96.25
X190.93Y-87.766
X191.08Y-82.74
X191.099Y-88.63
X191.22Y-75.15
X191.675Y-100.925
X191.82Y-70.24
X191.89Y-104.12
X191.905Y-66.864
X192.127Y-97.668
X192.175Y-83.1
X193.25Y-82.75
X193.859Y-83.481
X193.859Y-84.379
X193.859Y-85.194
X193.859Y-85.983
X194.03Y-82.74
X194.44Y-66.87
X194.59Y-104.16
X194.63Y-94.91
X194.63Y-97.77
X195.23Y-69.55
X195.52Y-88.6
X196.59Y-92.07
X196.68Y-70.43
X196.73Y-88.61
X196.92Y-84.85
X196.94Y-83.71
X198.04Y-71.7
X199.32Y-72.94
X199.55Y-91.325
X199.55Y-92.2
X200.3Y-92.95
X200.4Y-89.5
X200.4Y-90.475
X200.95Y-84.55
X201.0Y-93.65
X201.24Y-74.11
X201.95Y-83.55
X201.975Y-94.625
X202.8Y-95.45
X203.025Y-82.475
X203.775Y-81.725
X204.025Y-96.675
X204.68Y-79.21
X205.1Y-81.725
X205.575Y-95.9
X205.9Y-90.125
X205.975Y-82.6
X205.99Y-73.57
X206.325Y-95.15
X206.375Y-91.525
X206.55Y-86.725
X206.75Y-85.775
X206.775Y-89.25
X206.95Y-83.575
X207.1Y-94.375
X207.3Y-92.45
X207.35Y-87.525
X207.625Y-84.9
X207.625Y-88.4
X207.925Y-93.525
X208.06Y-98.63
X208.475Y-101.525
X209.3Y-75.14
X209.49Y-73.12
X210.75Y-85.41
X210.84Y-93.31
X211.032Y-88.227
X211.12Y-90.57
X213.02Y-104.23
X213.325Y-80.4
X213.66Y-66.35
T3
X164.275Y-96.53
X164.275Y-99.07
X164.275Y-101.61
X164.275Y-104.15
X176.85Y-96.935
X183.02Y-67.85
X205.945Y-103.175
X212.175Y-81.75
T2
G00X156.275Y-67.95
M15
G01X155.375Y-67.95
M16
G05
G00X156.275Y-79.15
M15
G01X155.375Y-79.15
M16
G05
G00X156.3Y-81.6
M15
G01X155.4Y-81.6
M16
G05
G00X156.3Y-92.8
M15
G01X155.4Y-92.8
M16
G05
G00X160.125Y-67.95
M15
G01X159.525Y-67.95
M16
G05
G00X160.125Y-79.15
M15
G01X159.525Y-79.15
M16
G05
G00X160.15Y-81.6
M15
G01X159.55Y-81.6
M16
G05
G00X160.15Y-92.8
M15
G01X159.55Y-92.8
M16
G05
M30
